<svg width="48" height="48" viewBox="0 0 48 48" fill="none" xmlns="http://www.w3.org/2000/svg">
<path d="M48 24C48 37.2548 37.2548 48 24 48C10.7452 48 0 37.2548 0 24C0 10.7452 10.7452 0 24 0C37.2548 0 48 10.7452 48 24Z" fill="#111111"/>
<path d="M31.496 11.928V27.466C31.496 30.3447 30.7367 32.532 29.218 34.028C27.722 35.5013 25.614 36.238 22.894 36.238C19.97 36.238 17.6467 35.4333 15.924 33.824C14.2014 32.2147 13.34 29.8687 13.34 26.786H20.786C20.786 27.7607 20.9447 28.452 21.262 28.86C21.5794 29.2453 22.01 29.438 22.554 29.438C23.0074 29.438 23.3587 29.2907 23.608 28.996C23.8574 28.7013 23.982 28.1913 23.982 27.466V11.928H31.496Z" fill="#CCF036"/>
</svg>
