<svg width="250" height="250" viewBox="0 0 250 250" fill="none" xmlns="http://www.w3.org/2000/svg">
<path d="M206.525 219.833C205.716 220.468 204.898 220.865 204.071 221.023C203.242 221.194 202.452 221.122 201.701 220.809C200.943 220.5 200.267 219.968 199.673 219.211C199.079 218.454 198.722 217.67 198.602 216.861C198.481 216.064 198.602 215.283 198.964 214.518C199.325 213.765 199.91 213.071 200.718 212.436L203.026 210.623L208.833 218.02L206.525 219.833ZM201.343 213.232C200.386 213.984 199.852 214.809 199.743 215.707C199.64 216.612 199.946 217.521 200.662 218.434C201.384 219.353 202.203 219.871 203.119 219.986C204.028 220.107 204.958 219.794 205.908 219.048L207.248 217.995L202.683 212.179L201.343 213.232Z" fill="#F04545"/>
<path d="M191.981 223.997C191.852 223.802 191.725 223.589 191.603 223.357L196.528 220.064C196.087 219.483 195.563 219.146 194.959 219.052C194.352 218.971 193.778 219.111 193.239 219.472C192.796 219.768 192.496 220.114 192.339 220.512C192.179 220.922 192.154 221.339 192.263 221.763L191.161 222.5C190.932 221.799 190.94 221.095 191.185 220.391C191.435 219.693 191.927 219.099 192.662 218.608C193.247 218.217 193.859 217.997 194.498 217.948C195.131 217.904 195.738 218.034 196.319 218.338C196.906 218.649 197.412 219.122 197.836 219.758C198.261 220.394 198.505 221.037 198.57 221.686C198.635 222.335 198.523 222.94 198.236 223.5C197.946 224.072 197.501 224.559 196.901 224.96C196.316 225.351 195.714 225.57 195.094 225.616C194.475 225.662 193.895 225.541 193.356 225.252C192.814 224.976 192.356 224.558 191.981 223.997ZM193.181 223.503C193.44 223.892 193.749 224.168 194.106 224.329C194.468 224.498 194.846 224.554 195.241 224.495C195.633 224.45 196.009 224.306 196.369 224.066C196.887 223.72 197.219 223.26 197.367 222.685C197.507 222.115 197.408 221.521 197.071 220.902L193.181 223.503Z" fill="#F04545"/>
<path d="M186.272 224.38L187.386 230.959L186.248 231.611L185.1 223.746L186.343 223.033L192.537 228.005L191.387 228.664L186.272 224.38Z" fill="#F04545"/>
<path d="M177.059 232.623C176.959 232.411 176.865 232.182 176.777 231.935L182.124 229.385C181.77 228.746 181.302 228.337 180.717 228.157C180.128 227.989 179.541 228.045 178.955 228.325C178.475 228.554 178.128 228.854 177.915 229.224C177.698 229.607 177.613 230.016 177.66 230.452L176.464 231.023C176.338 230.295 176.447 229.601 176.791 228.938C177.139 228.284 177.712 227.766 178.509 227.386C179.144 227.083 179.781 226.954 180.421 226.998C181.052 227.046 181.634 227.261 182.166 227.646C182.702 228.038 183.134 228.58 183.462 229.27C183.79 229.961 183.939 230.632 183.909 231.285C183.88 231.937 183.682 232.519 183.317 233.032C182.948 233.557 182.437 233.975 181.786 234.285C181.152 234.588 180.525 234.718 179.905 234.674C179.285 234.631 178.73 234.427 178.238 234.064C177.741 233.713 177.348 233.232 177.059 232.623ZM178.316 232.307C178.517 232.73 178.783 233.047 179.113 233.258C179.446 233.478 179.813 233.587 180.212 233.586C180.606 233.597 180.999 233.51 181.389 233.323C181.951 233.056 182.346 232.648 182.575 232.1C182.796 231.556 182.784 230.954 182.54 230.293L178.316 232.307Z" fill="#F04545"/>
<path d="M176.422 239.556L172.446 230.395L173.574 229.903L177.55 239.064L176.422 239.556Z" fill="#F04545"/>
<path d="M166.764 232.728C167.42 232.501 168.068 232.444 168.707 232.556C169.337 232.672 169.899 232.949 170.393 233.388C170.881 233.838 171.249 234.424 171.498 235.148C171.743 235.863 171.806 236.546 171.686 237.196C171.561 237.858 171.279 238.427 170.842 238.902C170.407 239.385 169.858 239.741 169.193 239.971C168.529 240.2 167.877 240.259 167.238 240.147C166.602 240.043 166.037 239.771 165.543 239.333C165.041 238.897 164.666 238.317 164.417 237.594C164.169 236.87 164.112 236.176 164.246 235.511C164.374 234.857 164.66 234.288 165.103 233.801C165.546 233.315 166.099 232.957 166.764 232.728ZM167.115 233.749C166.697 233.893 166.339 234.126 166.04 234.449C165.74 234.771 165.547 235.166 165.46 235.634C165.364 236.105 165.413 236.621 165.606 237.183C165.799 237.745 166.073 238.183 166.429 238.498C166.785 238.813 167.174 239.002 167.596 239.066C168.021 239.138 168.442 239.102 168.86 238.958C169.286 238.811 169.644 238.578 169.935 238.258C170.22 237.95 170.402 237.564 170.48 237.099C170.559 236.634 170.502 236.12 170.309 235.558C170.113 234.988 169.846 234.543 169.507 234.222C169.16 233.904 168.778 233.707 168.361 233.632C167.948 233.566 167.532 233.605 167.115 233.749Z" fill="#F04545"/>
<path d="M161.838 241.136C161.705 241.606 161.441 242.035 161.045 242.422C160.643 242.821 160.132 243.098 159.512 243.255C158.874 243.416 158.259 243.409 157.667 243.234C157.066 243.061 156.547 242.732 156.11 242.249C155.676 241.774 155.367 241.169 155.183 240.436C155.002 239.711 154.989 239.028 155.144 238.385C155.299 237.743 155.599 237.198 156.045 236.751C156.482 236.307 157.019 236.004 157.657 235.843C158.269 235.688 158.844 235.687 159.384 235.838C159.917 236.001 160.357 236.256 160.704 236.605L159.521 231.877L160.714 231.576L163.362 242.157L162.169 242.459L161.838 241.136ZM156.402 240.128C156.537 240.669 156.765 241.113 157.084 241.46C157.403 241.806 157.776 242.037 158.204 242.151C158.624 242.268 159.056 242.27 159.502 242.158C159.939 242.047 160.318 241.836 160.639 241.522C160.954 241.22 161.173 240.835 161.298 240.367C161.416 239.911 161.408 239.416 161.275 238.883C161.139 238.342 160.911 237.894 160.59 237.539C160.262 237.194 159.887 236.96 159.466 236.834C159.038 236.719 158.605 236.717 158.168 236.828C157.723 236.94 157.342 237.148 157.028 237.45C156.707 237.763 156.487 238.148 156.369 238.605C156.253 239.07 156.264 239.578 156.402 240.128Z" fill="#F04545"/>
<path d="M144.272 246.685C143.7 246.756 143.175 246.698 142.699 246.512C142.224 246.335 141.828 246.025 141.511 245.584C141.195 245.142 140.996 244.581 140.914 243.902L140.39 239.572L141.598 239.423L142.1 243.579C142.188 244.312 142.439 244.848 142.852 245.187C143.257 245.536 143.768 245.673 144.385 245.596C145.02 245.518 145.501 245.25 145.827 244.793C146.154 244.344 146.271 243.736 146.178 242.967L145.689 238.918L146.896 238.769L147.398 242.925C147.486 243.658 147.737 244.194 148.15 244.533C148.555 244.882 149.067 245.019 149.684 244.943C150.318 244.865 150.799 244.597 151.125 244.139C151.452 243.691 151.569 243.082 151.476 242.314L150.987 238.265L152.208 238.114L153.095 245.461L151.874 245.612L151.746 244.552C151.551 244.966 151.265 245.301 150.888 245.556C150.501 245.813 150.062 245.971 149.57 246.032C148.953 246.108 148.391 246.037 147.883 245.818C147.376 245.599 146.974 245.236 146.676 244.729C146.533 245.272 146.242 245.717 145.803 246.061C145.363 246.406 144.853 246.614 144.272 246.685Z" fill="#F04545"/>
<path d="M131.1 244.432C131.09 244.198 131.093 243.95 131.108 243.688L137.02 243.414C136.944 242.688 136.671 242.128 136.203 241.735C135.727 241.352 135.164 241.175 134.517 241.205C133.986 241.229 133.55 241.371 133.21 241.63C132.861 241.899 132.623 242.243 132.497 242.664L131.175 242.725C131.342 242.005 131.712 241.406 132.286 240.929C132.861 240.461 133.589 240.206 134.471 240.166C135.173 240.133 135.81 240.261 136.382 240.551C136.944 240.84 137.396 241.265 137.736 241.826C138.076 242.397 138.263 243.064 138.296 243.829C138.33 244.593 138.206 245.27 137.925 245.86C137.644 246.45 137.236 246.911 136.701 247.242C136.156 247.583 135.524 247.77 134.804 247.803C134.103 247.835 133.475 247.711 132.922 247.43C132.369 247.149 131.936 246.746 131.625 246.219C131.305 245.702 131.13 245.107 131.1 244.432ZM132.38 244.63C132.401 245.097 132.522 245.493 132.743 245.816C132.965 246.148 133.26 246.392 133.627 246.546C133.986 246.71 134.381 246.781 134.813 246.761C135.434 246.733 135.956 246.51 136.38 246.094C136.795 245.678 137.018 245.118 137.051 244.414L132.38 244.63Z" fill="#F04545"/>
<path d="M124.979 248.206C124.078 248.179 123.358 247.883 122.818 247.317C122.278 246.76 122.024 245.968 122.058 244.942L122.201 240.581L123.416 240.618L123.279 244.803C123.255 245.541 123.421 246.109 123.777 246.508C124.133 246.915 124.631 247.128 125.27 247.147C125.918 247.167 126.443 246.98 126.843 246.586C127.234 246.193 127.443 245.609 127.468 244.835L127.602 240.744L128.831 240.781L128.588 248.18L127.36 248.143L127.394 247.09C127.139 247.46 126.801 247.743 126.38 247.938C125.95 248.132 125.483 248.221 124.979 248.206Z" fill="#F04545"/>
<path d="M118.01 246.847L118.375 242.498C118.405 242.139 118.35 241.877 118.21 241.712C118.07 241.556 117.811 241.463 117.434 241.432L116.532 241.359L116.619 240.322L117.723 240.412C118.405 240.467 118.903 240.666 119.218 241.008C119.533 241.35 119.66 241.879 119.6 242.598L119.235 246.946L120.191 247.024L120.107 248.034L119.151 247.956L118.995 249.814L117.77 249.715L117.926 247.857L116 247.7L116.085 246.691L118.01 246.847Z" fill="#F04545"/>
<path d="M109.384 243.383C109.615 243.416 109.8 243.523 109.938 243.706C110.075 243.889 110.128 244.097 110.095 244.329C110.061 244.561 109.953 244.745 109.77 244.884C109.586 245.022 109.379 245.074 109.147 245.042C108.924 245.011 108.748 244.904 108.619 244.722C108.482 244.539 108.43 244.332 108.463 244.1C108.496 243.868 108.604 243.683 108.788 243.545C108.962 243.406 109.161 243.352 109.384 243.383Z" fill="#F04545"/>
<path d="M95.666 243.758C95.8609 242.998 96.2851 242.432 96.9385 242.059C97.5809 241.692 98.4343 241.644 99.4986 241.915L101.252 242.36L102.23 238.55L103.421 238.853L101.078 247.978L98.1341 247.23C97.1046 246.968 96.3877 246.521 95.9833 245.888C95.5701 245.253 95.4643 244.543 95.666 243.758ZM99.2466 242.897C98.5835 242.728 98.058 242.748 97.67 242.956C97.282 243.164 97.0197 243.535 96.883 244.067C96.594 245.193 97.095 245.92 98.3861 246.248L100.14 246.694L101 243.342L99.2466 242.897Z" fill="#F04545"/>
<path d="M86.1788 241.806L88.5688 234.794L89.7325 235.187L89.3792 236.224C89.723 235.94 90.1301 235.764 90.6006 235.695C91.0596 235.632 91.5278 235.681 92.0052 235.842C92.5508 236.027 93.0032 236.303 93.3623 236.672C93.7186 237.05 93.9475 237.508 94.0492 238.047C94.1423 238.582 94.0784 239.174 93.8574 239.823L92.4574 243.93L91.3065 243.541L92.6542 239.587C92.8897 238.896 92.8967 238.304 92.6751 237.81C92.4506 237.325 92.0357 236.98 91.4305 236.775C90.8081 236.565 90.2525 236.591 89.7636 236.853C89.2747 237.116 88.9053 237.614 88.6552 238.348L87.3425 242.2L86.1788 241.806Z" fill="#F04545"/>
<path d="M82.7485 239.372C82.3401 239.676 81.857 239.858 81.2994 239.92C80.7418 239.981 80.1785 239.888 79.6095 239.639C78.9993 239.373 78.5144 238.989 78.1547 238.487C77.795 237.986 77.591 237.41 77.5425 236.759C77.4905 236.117 77.6166 235.449 77.9211 234.756C78.2218 234.071 78.6302 233.521 79.1461 233.107C79.662 232.693 80.2326 232.445 80.8578 232.364C81.4748 232.28 82.0842 232.369 82.6862 232.632C83.2716 232.887 83.7308 233.24 84.0638 233.691C84.3885 234.137 84.5752 234.608 84.6239 235.101L85.1729 233.851L86.2985 234.342L82.276 243.504L81.1504 243.012L82.7485 239.372ZM79.0714 235.258C78.8467 235.77 78.754 236.26 78.7935 236.73C78.833 237.2 78.9865 237.611 79.2541 237.964C79.5135 238.314 79.8534 238.58 80.2739 238.764C80.6862 238.944 81.115 239.008 81.5601 238.957C81.9934 238.91 82.4025 238.739 82.7872 238.445C83.16 238.155 83.457 237.759 83.678 237.255C83.9027 236.743 83.9971 236.249 83.9613 235.771C83.9136 235.297 83.7619 234.882 83.5062 234.524C83.2386 234.171 82.8986 233.905 82.4863 233.725C82.0658 233.541 81.6388 233.473 81.2055 233.52C80.7604 233.571 80.3514 233.742 79.9785 234.031C79.602 234.329 79.2997 234.738 79.0714 235.258Z" fill="#F04545"/>
<path d="M71.9657 238.973L76.2936 229.951L77.4019 230.48L73.0739 239.503L71.9657 238.973Z" fill="#F04545"/>
<path d="M69.3114 236.156C69.519 236.264 69.6571 236.427 69.7257 236.645C69.7943 236.864 69.7744 237.077 69.666 237.285C69.5575 237.493 69.3939 237.631 69.1751 237.7C68.9563 237.77 68.7432 237.75 68.5356 237.642C68.336 237.539 68.2059 237.38 68.1453 237.165C68.0767 236.947 68.0966 236.734 68.205 236.526C68.3135 236.318 68.4771 236.179 68.6959 236.11C68.9067 236.037 69.1118 236.052 69.3114 236.156ZM69.3413 234.815L72.7699 228.245L73.8596 228.811L70.431 235.381L69.3413 234.815Z" fill="#F04545"/>
<path d="M68.0734 225.654C68.5574 225.949 68.942 226.294 69.2273 226.69C69.508 227.093 69.6703 227.509 69.7143 227.937C69.7537 228.373 69.6673 228.79 69.4552 229.189L68.3721 228.529C68.5342 228.194 68.5458 227.848 68.4069 227.489C68.2603 227.125 67.9719 226.812 67.5418 226.55C67.1423 226.306 66.7733 226.203 66.4346 226.239C66.096 226.275 65.8444 226.428 65.6798 226.698C65.5105 226.974 65.5087 227.253 65.6746 227.534C65.8358 227.822 66.1337 228.189 66.5684 228.633C66.9617 229.042 67.2706 229.399 67.4949 229.705C67.7068 230.013 67.8451 230.356 67.9097 230.733C67.9619 231.114 67.8633 231.508 67.6141 231.915C67.4165 232.238 67.1394 232.476 66.7828 232.628C66.4261 232.78 66.0241 232.826 65.5767 232.764C65.1245 232.71 64.6719 232.545 64.2187 232.269C63.5196 231.843 63.0632 231.322 62.8494 230.706C62.6356 230.09 62.7014 229.465 63.047 228.831L64.0955 229.47C63.9163 229.815 63.8885 230.162 64.012 230.512C64.1278 230.857 64.3893 231.154 64.7965 231.402C65.1729 231.631 65.5218 231.733 65.8434 231.707C66.1649 231.681 66.4056 231.538 66.5655 231.276C66.6925 231.069 66.733 230.856 66.6871 230.638C66.6288 230.423 66.5256 230.212 66.3777 230.006C66.2173 229.802 65.9872 229.541 65.6873 229.22C65.3093 228.821 65.0158 228.473 64.8069 228.177C64.5932 227.888 64.4594 227.564 64.4055 227.204C64.3439 226.839 64.4268 226.462 64.6543 226.073C64.8659 225.726 65.1524 225.473 65.5138 225.313C65.8752 225.154 66.2819 225.101 66.734 225.154C67.1738 225.211 67.6202 225.378 68.0734 225.654Z" fill="#F04545"/>
<path d="M55.9834 227.18C55.5319 226.852 55.1957 226.458 54.9748 225.997C54.7485 225.543 54.6739 225.049 54.751 224.515C54.8208 223.975 55.0571 223.428 55.46 222.874L58.0285 219.34L59.0116 220.052L56.5464 223.444C56.1117 224.042 55.9297 224.607 56.0003 225.137C56.0656 225.674 56.3567 226.13 56.8737 226.505C57.398 226.886 57.936 227.025 58.4877 226.924C59.0321 226.818 59.5322 226.451 59.9881 225.823L62.3976 222.508L63.3916 223.229L57.5071 231.326L56.5131 230.605L58.6602 227.651C58.2409 227.814 57.7992 227.856 57.335 227.776C56.8635 227.69 56.413 227.491 55.9834 227.18Z" fill="#F04545"/>
<path d="M50.5416 224.548C50.7266 224.691 50.8335 224.876 50.8622 225.104C50.8909 225.331 50.8334 225.538 50.6899 225.723C50.5463 225.908 50.3608 226.016 50.1333 226.045C49.9058 226.074 49.6996 226.017 49.5146 225.874C49.3367 225.737 49.2369 225.557 49.2153 225.335C49.1866 225.108 49.2441 224.901 49.3876 224.716C49.5312 224.531 49.7167 224.423 49.9442 224.394C50.1645 224.359 50.3637 224.411 50.5416 224.548ZM50.8091 223.233L55.3478 217.373L56.3192 218.124L51.7804 223.984L50.8091 223.233Z" fill="#F04545"/>
<path d="M45.279 219.028C44.6118 218.425 44.256 217.733 44.2115 216.951C44.161 216.176 44.4806 215.407 45.1705 214.645L48.1024 211.405L49.0031 212.22L46.1891 215.329C45.6929 215.877 45.4515 216.419 45.4648 216.953C45.472 217.495 45.7125 217.98 46.1862 218.408C46.6665 218.842 47.1863 219.039 47.7455 218.997C48.298 218.95 48.8345 218.639 49.3549 218.064L52.1053 215.025L53.0159 215.848L48.0417 221.344L47.131 220.521L47.839 219.739C47.4047 219.856 46.9645 219.854 46.5185 219.73C46.0657 219.6 45.6526 219.366 45.279 219.028Z" fill="#F04545"/>
<path d="M39.0398 212.618C38.606 212.15 38.3298 211.646 38.2112 211.106C38.0865 210.559 38.1003 210.057 38.2525 209.597L37.2597 210.516L36.4166 209.605L41.9763 204.46C42.4727 204 43.0106 203.698 43.59 203.554C44.1759 203.404 44.7614 203.426 45.3464 203.62C45.9253 203.807 46.456 204.162 46.9386 204.683C47.5984 205.396 47.9795 206.147 48.0818 206.934C48.1841 207.722 47.9837 208.428 47.4807 209.053L46.656 208.162C46.8953 207.757 46.9706 207.307 46.882 206.813C46.8001 206.313 46.5575 205.845 46.1543 205.409C45.6961 204.914 45.1679 204.655 44.5697 204.633C43.9654 204.604 43.3819 204.85 42.8194 205.371L41.6776 206.427C42.1603 206.311 42.6694 206.33 43.205 206.484C43.7406 206.638 44.2252 206.949 44.659 207.418C45.105 207.9 45.3921 208.449 45.5204 209.066C45.6425 209.676 45.5924 210.292 45.3699 210.915C45.1474 211.537 44.7614 212.103 44.2121 212.611C43.6561 213.126 43.0658 213.464 42.4411 213.625C41.8098 213.793 41.1981 213.789 40.606 213.614C40.0078 213.432 39.4857 213.1 39.0398 212.618ZM39.97 208.008C39.5597 208.387 39.2787 208.801 39.1269 209.247C38.9752 209.694 38.9513 210.133 39.0551 210.564C39.1462 210.994 39.3476 211.378 39.6591 211.714C39.9707 212.051 40.3342 212.285 40.7496 212.415C41.165 212.545 41.6014 212.552 42.0585 212.435C42.5157 212.318 42.9495 212.07 43.3599 211.69C43.7768 211.304 44.0645 210.885 44.2228 210.432C44.3746 209.985 44.4049 209.547 44.3137 209.116C44.216 208.692 44.0114 208.312 43.6998 207.975C43.3882 207.638 43.0247 207.405 42.6093 207.275C42.1811 207.144 41.7385 207.137 41.2813 207.254C40.8175 207.376 40.3804 207.628 39.97 208.008Z" fill="#F04545"/>
<path d="M33.5894 201.844C33.7381 202.025 33.8012 202.229 33.7788 202.457C33.7563 202.686 33.6547 202.874 33.4737 203.023C33.2927 203.172 33.0881 203.236 32.8599 203.214C32.6317 203.192 32.4433 203.091 32.2947 202.911C32.1518 202.737 32.0944 202.54 32.1225 202.318C32.1449 202.09 32.2466 201.902 32.4276 201.752C32.6086 201.603 32.8132 201.54 33.0414 201.562C33.2639 201.576 33.4465 201.671 33.5894 201.844Z" fill="#F04545"/>
<path d="M24.0945 198.899L31.7685 193.422L32.481 194.421L24.8071 199.899L24.0945 198.899Z" fill="#F04545"/>
<path d="M21.6419 192.122C21.1775 191.352 21.0368 190.586 21.2197 189.823C21.3949 189.066 21.9224 188.422 22.8022 187.89L26.5415 185.631L27.1684 186.671L23.5796 188.839C22.9467 189.221 22.5595 189.671 22.4181 190.187C22.2689 190.708 22.3591 191.242 22.6888 191.789C23.0231 192.344 23.4638 192.682 24.0108 192.803C24.5531 192.917 25.1561 192.773 25.8199 192.372L29.3277 190.253L29.9615 191.305L23.6174 195.138L22.9835 194.086L23.8865 193.541C23.437 193.528 23.0167 193.399 22.6256 193.152C22.2298 192.897 21.9019 192.554 21.6419 192.122Z" fill="#F04545"/>
<path d="M19.0307 185.562L22.8767 183.49C23.1943 183.319 23.3843 183.13 23.4469 182.923C23.5016 182.72 23.4395 182.452 23.2608 182.119L22.8331 181.322L23.7499 180.828L24.2734 181.803C24.5969 182.405 24.7005 182.932 24.5844 183.383C24.4683 183.834 24.0928 184.23 23.4577 184.572L19.6116 186.644L20.0649 187.488L19.1719 187.969L18.7186 187.125L17.0754 188.01L16.4944 186.928L18.1376 186.043L17.2247 184.343L18.1178 183.862L19.0307 185.562Z" fill="#F04545"/>
<path d="M16.0015 174.195C16.2157 174.1 16.4477 174.012 16.6975 173.93L19.0915 179.334C19.7405 178.996 20.1634 178.537 20.3601 177.958C20.5449 177.373 20.5061 176.785 20.2438 176.193C20.0288 175.707 19.739 175.354 19.3745 175.132C18.9981 174.905 18.5913 174.811 18.1541 174.848L17.6184 173.638C18.3493 173.53 19.041 173.655 19.6933 174.015C20.3374 174.378 20.8381 174.963 21.1952 175.769C21.4794 176.411 21.5903 177.051 21.5279 177.689C21.4619 178.319 21.2291 178.895 20.8294 179.418C20.4216 179.944 19.8676 180.363 19.1674 180.674C18.4673 180.986 17.7916 181.119 17.1406 181.074C16.4895 181.029 15.9128 180.818 15.4105 180.44C14.8962 180.059 14.4934 179.539 14.2018 178.881C13.9176 178.239 13.8062 177.609 13.8676 176.991C13.9291 176.373 14.1486 175.822 14.5262 175.339C14.892 174.851 15.3837 174.47 16.0015 174.195ZM16.2805 175.46C15.8522 175.65 15.5276 175.908 15.3066 176.233C15.0774 176.561 14.9574 176.925 14.9467 177.323C14.924 177.717 15.0002 178.112 15.1751 178.507C15.4265 179.074 15.8227 179.479 16.3637 179.721C16.9011 179.954 17.5037 179.957 18.1717 179.729L16.2805 175.46Z" fill="#F04545"/>
<path d="M12.5211 171.828C12.0485 171.778 11.6323 171.61 11.2724 171.324C10.9093 171.03 10.6251 170.614 10.4199 170.076L11.6067 169.621L11.7222 169.923C12.2127 171.209 13.1566 171.585 14.5538 171.049L18.3163 169.606L18.754 170.754L11.8351 173.407L11.3974 172.259L12.5211 171.828Z" fill="#F04545"/>
<path d="M12.8962 166.779C12.1687 166.988 11.4901 167.025 10.8604 166.888C10.222 166.754 9.67819 166.475 9.22909 166.052C8.77751 165.62 8.46142 165.088 8.2808 164.457C8.10265 163.834 8.08224 163.254 8.21958 162.718C8.35692 162.182 8.59694 161.743 8.93966 161.401L7.64058 161.775L7.29911 160.581L14.4181 158.529L14.7596 159.723L13.4345 160.105C13.917 160.219 14.3637 160.469 14.7744 160.857C15.174 161.238 15.4617 161.736 15.6374 162.35C15.818 162.982 15.8254 163.598 15.6596 164.198C15.4938 164.798 15.1715 165.327 14.6927 165.783C14.2139 166.24 13.6151 166.571 12.8962 166.779ZM11.1871 160.753C10.6501 160.908 10.2134 161.151 9.87685 161.482C9.54032 161.813 9.32134 162.195 9.21988 162.627C9.10728 163.052 9.11408 163.486 9.24027 163.927C9.36646 164.368 9.58545 164.741 9.89722 165.044C10.209 165.348 10.595 165.55 11.0553 165.652C11.5155 165.753 12.0141 165.727 12.5511 165.572C13.0967 165.414 13.5421 165.169 13.8873 164.835C14.2238 164.504 14.4484 164.126 14.5609 163.7C14.6649 163.277 14.6538 162.844 14.5276 162.403C14.4014 161.962 14.1824 161.589 13.8706 161.286C13.5477 160.976 13.1561 160.771 12.6959 160.669C12.227 160.57 11.7241 160.598 11.1871 160.753Z" fill="#F04545"/>
<path d="M9.88178 157.149C9.13156 157.303 8.44788 157.288 7.83076 157.103C7.20481 156.919 6.68349 156.595 6.2668 156.129C5.84831 155.655 5.56902 155.074 5.42891 154.386C5.24749 153.495 5.31464 152.719 5.63037 152.056C5.9443 151.385 6.46635 150.878 7.19651 150.534L7.46055 151.831C7.04439 152.045 6.74514 152.359 6.56283 152.774C6.37872 153.179 6.34056 153.647 6.44834 154.176C6.58844 154.864 6.93991 155.37 7.50274 155.695C8.05675 156.022 8.76624 156.097 9.6312 155.918C10.505 155.738 11.1371 155.388 11.5275 154.866C11.9179 154.344 12.043 153.74 11.9029 153.052C11.7951 152.523 11.5818 152.107 11.2628 151.805C10.9438 151.503 10.5414 151.334 10.0554 151.296L9.7914 149.999C10.5723 150.041 11.2471 150.306 11.8158 150.795C12.3757 151.286 12.7445 151.968 12.9223 152.842C13.0625 153.53 13.0328 154.174 12.8335 154.776C12.6323 155.369 12.2799 155.873 11.7761 156.29C11.2723 156.706 10.6408 156.992 9.88178 157.149Z" fill="#F04545"/>
<path d="M5.04817 146.849L9.36349 146.188C9.71976 146.134 9.96222 146.019 10.0908 145.845C10.2106 145.672 10.2423 145.398 10.1859 145.024L10.0512 144.13L11.0799 143.972L11.2449 145.067C11.3468 145.744 11.2673 146.275 11.0065 146.661C10.7457 147.047 10.2591 147.294 9.54652 147.403L5.23117 148.064L5.37396 149.012L4.37196 149.166L4.22916 148.218L2.38546 148.5L2.20245 147.285L4.04617 147.003L3.75857 145.093L4.76058 144.94L5.04817 146.849Z" fill="#F04545"/>
<path d="M2.07567 142.001C2.10289 142.233 2.04541 142.44 1.90323 142.62C1.76105 142.8 1.57364 142.904 1.34104 142.932C1.10844 142.96 0.902225 142.903 0.722351 142.761C0.542477 142.62 0.43892 142.432 0.411699 142.2C0.385526 141.976 0.44406 141.779 0.587291 141.608C0.729475 141.428 0.916856 141.324 1.14945 141.296C1.38205 141.268 1.5883 141.325 1.76817 141.466C1.947 141.599 2.0495 141.777 2.07567 142.001ZM3.20087 141.268L10.5545 140.388L10.6975 141.609L3.34378 142.488L3.20087 141.268Z" fill="#F04545"/>
<path d="M9.98459 134.421C10.0123 135.113 9.88 135.75 9.58767 136.33C9.29498 136.901 8.86711 137.361 8.30407 137.71C7.73167 138.05 7.06298 138.236 6.29799 138.268C5.54199 138.301 4.86951 138.167 4.28056 137.868C3.68225 137.56 3.21877 137.129 2.8901 136.575C2.55243 136.022 2.36956 135.394 2.34149 134.692C2.31342 133.99 2.44555 133.349 2.73788 132.769C3.02121 132.189 3.44439 131.725 4.00743 131.377C4.57011 131.019 5.23396 130.824 5.99895 130.792C6.76394 130.759 7.44579 130.901 8.04446 131.218C8.63377 131.527 9.09742 131.962 9.43545 132.524C9.77348 133.087 9.95653 133.719 9.98459 134.421ZM8.9046 134.467C8.88697 134.026 8.76692 133.616 8.54445 133.238C8.32198 132.86 7.99906 132.563 7.57571 132.347C7.152 132.122 6.64315 132.022 6.04915 132.047C5.45516 132.072 4.95583 132.211 4.55119 132.462C4.14655 132.714 3.85279 133.033 3.66991 133.419C3.47802 133.806 3.39089 134.219 3.40852 134.66C3.42651 135.11 3.54658 135.52 3.76869 135.889C3.98144 136.249 4.2993 136.533 4.7223 136.74C5.14529 136.948 5.65378 137.039 6.24778 137.013C6.85077 136.988 7.35495 136.858 7.76031 136.624C8.16531 136.382 8.46393 136.072 8.65617 135.694C8.83942 135.317 8.92224 134.908 8.9046 134.467Z" fill="#F04545"/>
<path d="M1.99293 124.97C2.02569 124.07 2.32677 123.35 2.89615 122.81C3.45652 122.271 4.24977 122.018 5.2759 122.053L9.63697 122.2L9.59275 123.415L5.4072 123.274C4.66911 123.249 4.09982 123.414 3.69934 123.77C3.28986 124.126 3.0735 124.623 3.05024 125.262C3.02666 125.91 3.21035 126.434 3.60132 126.835C3.99262 127.227 4.57531 127.436 5.34941 127.462L9.44043 127.6L9.39573 128.828L1.99677 128.579L2.04148 127.35L3.09461 127.386C2.72541 127.13 2.44483 126.792 2.25288 126.371C2.06124 125.941 1.97459 125.474 1.99293 124.97Z" fill="#F04545"/>
<path d="M6.23593 115.453C6.21383 115.686 6.11442 115.876 5.93771 116.023C5.76101 116.169 5.55608 116.232 5.32294 116.21C5.0898 116.189 4.90018 116.09 4.75408 115.913C4.60798 115.737 4.54598 115.532 4.56808 115.299C4.58933 115.075 4.68787 114.894 4.86372 114.757C5.04043 114.61 5.24536 114.548 5.4785 114.569C5.71164 114.591 5.90127 114.689 6.04737 114.866C6.19432 115.033 6.25718 115.229 6.23593 115.453Z" fill="#F04545"/>
<path d="M9.52485 103.467L8.66411 107.484L10.5532 108.658L10.2814 109.926L1.8399 104.659L2.1372 103.271L12.0029 101.891L11.7311 103.16L9.52485 103.467ZM8.47364 103.604L3.46674 104.284L7.76015 106.934L8.47364 103.604Z" fill="#F04545"/>
<path d="M6.02923 94.1056C6.28518 93.2415 6.7559 92.619 7.44138 92.2379C8.11822 91.8544 8.94888 91.8072 9.93336 92.0963L14.1174 93.3251L13.7719 94.4916L9.75622 93.3123C9.04809 93.1043 8.45587 93.1229 7.97959 93.3681C7.49468 93.6108 7.16136 94.0389 6.97963 94.6524C6.79534 95.2745 6.84247 95.8284 7.12102 96.3141C7.40213 96.7911 7.91402 97.1387 8.6567 97.3568L12.5817 98.5096L12.2323 99.689L5.13366 97.6042L5.48304 96.4248L6.49343 96.7215C6.19984 96.3817 6.01259 95.9839 5.93171 95.5281C5.85339 95.0636 5.88589 94.5895 6.02923 94.1056Z" fill="#F04545"/>
<path d="M6.71258 88.0457C6.63862 88.2681 6.49913 88.4308 6.29409 88.534C6.08906 88.6371 5.87545 88.652 5.65325 88.5787C5.43105 88.5053 5.26862 88.3663 5.16599 88.1616C5.06337 87.9568 5.04904 87.7433 5.12299 87.521C5.19411 87.3072 5.33076 87.153 5.53295 87.0584C5.73798 86.9552 5.95159 86.9403 6.17379 87.0137C6.39599 87.087 6.55841 87.2261 6.66104 87.4308C6.76652 87.627 6.7837 87.8319 6.71258 88.0457ZM8.04123 87.858L15.0662 90.1772L14.6779 91.3445L7.65295 89.0253L8.04123 87.858Z" fill="#F04545"/>
<path d="M12.4022 75.7405C12.6537 75.2213 12.9871 74.8115 13.4024 74.5114C13.8096 74.2073 14.285 74.0411 14.8285 74.0129C15.372 73.9847 15.9517 74.1191 16.5677 74.4161L20.4944 76.3092L19.964 77.4045L16.1952 75.5876C15.5306 75.2672 14.9435 75.1893 14.4339 75.3539C13.9201 75.5065 13.5277 75.8628 13.2566 76.4226C12.9776 76.9986 12.9419 77.5469 13.1497 78.0674C13.3494 78.584 13.7978 79.0103 14.4948 79.3464L18.1662 81.1164L17.6358 82.2117L13.867 80.3948C13.2024 80.0744 12.6153 79.9965 12.1057 80.1611C11.5919 80.3138 11.1995 80.67 10.9283 81.2298C10.6493 81.8059 10.6137 82.3541 10.8215 82.8746C11.0212 83.3912 11.4695 83.8176 12.1665 84.1536L15.838 85.9236L15.3016 87.0311L8.6395 83.8193L9.17589 82.7118L10.1363 83.1748C9.89389 82.7877 9.7679 82.3667 9.75832 81.9117C9.75266 81.4486 9.85789 80.994 10.074 80.5477C10.3451 79.9879 10.7105 79.5535 11.17 79.2447C11.6295 78.9358 12.1535 78.7931 12.7419 78.8166C12.3622 78.4033 12.1468 77.9192 12.0957 77.3642C12.0446 76.8091 12.1468 76.2679 12.4022 75.7405Z" fill="#F04545"/>
<path d="M17.87 72.4115C17.2188 72.028 16.727 71.5605 16.3946 71.009C16.0544 70.4529 15.884 69.866 15.8832 69.2483C15.8871 68.6227 16.0564 68.0267 16.3912 67.46C16.7215 66.9011 17.1283 66.4867 17.6117 66.2168C18.0951 65.9469 18.5786 65.8183 19.0621 65.8311L17.8993 65.1463L18.5323 64.0751L24.9044 67.8275L24.2715 68.8988L23.0854 68.2003C23.3337 68.629 23.458 69.126 23.4584 69.6913C23.4556 70.2442 23.2914 70.7962 22.9658 71.3473C22.631 71.914 22.1887 72.3442 21.6391 72.6378C21.0894 72.9314 20.4847 73.0619 19.8249 73.0291C19.165 72.9962 18.5134 72.7904 17.87 72.4115ZM21.0738 67.0157C20.5932 66.7326 20.1172 66.5832 19.646 66.5672C19.1747 66.5513 18.7475 66.6555 18.3642 66.8797C17.9778 67.0916 17.6676 67.3955 17.4337 67.7914C17.1998 68.1872 17.0795 68.603 17.073 69.0386C17.0664 69.4741 17.1841 69.894 17.426 70.298C17.6679 70.7021 18.0292 71.0456 18.5098 71.3286C18.9982 71.6162 19.4819 71.7703 19.9609 71.7908C20.4321 71.8067 20.861 71.7087 21.2474 71.4968C21.6261 71.2804 21.9324 70.9742 22.1663 70.5783C22.4002 70.1824 22.5204 69.7667 22.527 69.3311C22.5304 68.8832 22.4112 68.4572 22.1692 68.0532C21.9196 67.6445 21.5544 67.2987 21.0738 67.0157Z" fill="#F04545"/>
<path d="M21.7829 60.5625L25.4155 62.9708C25.7154 63.1696 25.9715 63.2474 26.1838 63.2043C26.3886 63.1561 26.5958 62.9744 26.8055 62.659L27.3071 61.9043L28.1731 62.4784L27.5592 63.4021C27.1798 63.9728 26.7641 64.3138 26.312 64.4252C25.8599 64.5365 25.3339 64.3934 24.7341 63.9958L21.1016 61.5875L20.57 62.3872L19.7265 61.828L20.2581 61.0283L18.7061 59.9994L19.3874 58.9744L20.9394 60.0033L22.0101 58.3926L22.8535 58.9518L21.7829 60.5625Z" fill="#F04545"/>
<path d="M22.869 54.9282C22.7326 55.1189 22.5513 55.2333 22.3251 55.2712C22.0989 55.3092 21.8906 55.2602 21.7002 55.1244C21.5098 54.9885 21.396 54.8076 21.3586 54.5815C21.3212 54.3554 21.3707 54.147 21.5071 53.9563C21.6382 53.773 21.8143 53.666 22.0353 53.6354C22.2615 53.5974 22.4698 53.6463 22.6601 53.7822C22.8505 53.918 22.9644 54.099 23.0018 54.3251C23.0444 54.5438 23.0001 54.7449 22.869 54.9282ZM24.1927 55.1417L30.2114 59.4368L29.4954 60.438L23.4767 56.1429L24.1927 55.1417Z" fill="#F04545"/>
<path d="M33.796 54.6351C33.3502 55.1674 32.8241 55.5503 32.2178 55.7838C31.6173 56.0105 30.9921 56.0635 30.3421 55.9431C29.691 55.8099 29.0722 55.498 28.4858 55.0075C27.9063 54.5227 27.4999 53.9712 27.2668 53.353C27.0326 52.7221 26.9807 52.0908 27.1109 51.459C27.2342 50.8215 27.5217 50.2332 27.9734 49.694C28.425 49.1548 28.954 48.7684 29.5602 48.5349C30.1596 48.2955 30.7843 48.2361 31.4343 48.3566C32.0901 48.4702 32.7112 48.7722 33.2976 49.2628C33.8841 49.7533 34.2915 50.3175 34.5199 50.9553C34.7472 51.5804 34.7963 52.2152 34.6672 52.8596C34.5381 53.5041 34.2477 54.0959 33.796 54.6351ZM32.9681 53.9426C33.2518 53.6038 33.4389 53.2195 33.5292 52.7895C33.6195 52.3595 33.5812 51.9219 33.4144 51.4767C33.2534 51.0246 32.9452 50.608 32.4899 50.2272C32.0345 49.8463 31.5729 49.6129 31.105 49.5272C30.6371 49.4415 30.2056 49.4803 29.8106 49.6437C29.4088 49.8013 29.066 50.0495 28.7822 50.3882C28.4927 50.7339 28.3057 51.1182 28.2212 51.5413C28.1355 51.9517 28.179 52.3761 28.3516 52.8144C28.5242 53.2526 28.8382 53.6622 29.2936 54.0431C29.7558 54.4298 30.2151 54.6729 30.6714 54.7725C31.1335 54.8651 31.5626 54.8361 31.9587 54.6854C32.3479 54.5289 32.6844 54.2813 32.9681 53.9426Z" fill="#F04545"/>
<path d="M34.0232 42.5091C34.6511 41.8618 35.3567 41.5285 36.1399 41.509C36.9167 41.4834 37.6731 41.8274 38.4093 42.5411L41.538 45.5745L40.6904 46.4483L37.6876 43.5371C37.158 43.0237 36.6257 42.7651 36.0906 42.7612C35.549 42.7511 35.0553 42.9759 34.6095 43.4355C34.1574 43.9015 33.9416 44.4146 33.9622 44.9746C33.9891 45.5282 34.2802 46.0742 34.8356 46.6127L37.7706 49.4582L36.9135 50.3417L31.6053 45.1954L32.4624 44.3118L33.2179 45.0443C33.1163 44.6066 33.1356 44.1669 33.2759 43.7251C33.4225 43.2769 33.6716 42.8716 34.0232 42.5091Z" fill="#F04545"/>
<path d="M44.1951 37.6702C44.0212 37.8274 43.8198 37.9005 43.5908 37.8892C43.3618 37.878 43.1689 37.7857 43.0121 37.6122C42.8552 37.4388 42.7827 37.2375 42.7946 37.0086C42.8064 36.7796 42.8992 36.5865 43.0731 36.4292C43.2404 36.278 43.4351 36.2111 43.6574 36.2283C43.8864 36.2395 44.0793 36.3319 44.2361 36.5054C44.393 36.6788 44.4655 36.88 44.4537 37.109C44.4485 37.3319 44.3623 37.519 44.1951 37.6702Z" fill="#F04545"/>
<path d="M48.1616 26.7213C48.9984 26.1241 49.8336 25.7655 50.6673 25.6457C51.5031 25.5133 52.2887 25.6211 53.0241 25.9693C53.7668 26.3122 54.4174 26.8755 54.976 27.6592C55.5346 28.443 55.855 29.242 55.9371 30.0564C56.0213 30.8583 55.8648 31.633 55.4675 32.3807C55.0723 33.1158 54.4564 33.782 53.6196 34.3792L51.2305 36.0844L45.7725 28.4265L48.1616 26.7213ZM53.0323 33.5552C54.0232 32.848 54.5939 32.0484 54.7444 31.1563C54.8896 30.257 54.6256 29.3349 53.9521 28.39C53.2734 27.4378 52.4793 26.883 51.5698 26.7255C50.6675 26.5627 49.7246 26.8323 48.7411 27.5343L47.3538 28.5245L51.6451 34.5453L53.0323 33.5552Z" fill="#F04545"/>
<path d="M62.7905 23.2833C62.9112 23.4836 63.0274 23.7024 63.1389 23.9398L58.0682 27.0034C58.483 27.6041 58.9901 27.9651 59.5896 28.0863C60.1921 28.1952 60.7713 28.0818 61.3269 27.746C61.7823 27.4709 62.0978 27.1384 62.2734 26.7486C62.4521 26.3463 62.4964 25.9307 62.4063 25.5017L63.5408 24.8163C63.7378 25.5275 63.6978 26.2296 63.4206 26.9225C63.1387 27.6078 62.6196 28.1789 61.8633 28.6358C61.2613 28.9995 60.6398 29.1911 59.9987 29.2106C59.3654 29.2254 58.7651 29.0679 58.1978 28.738C57.6258 28.4004 57.1425 27.9042 56.7478 27.2494C56.3531 26.5945 56.1384 25.9413 56.1036 25.2897C56.0688 24.6381 56.2079 24.0391 56.5208 23.4928C56.8368 22.934 57.3035 22.4681 57.9209 22.0951C58.5229 21.7314 59.1344 21.5406 59.7553 21.5228C60.3763 21.505 60.9495 21.6526 61.4751 21.9656C62.0038 22.2662 62.4422 22.7055 62.7905 23.2833ZM61.57 23.7212C61.3285 23.3206 61.0331 23.0314 60.6838 22.8536C60.3298 22.6681 59.9544 22.5954 59.5574 22.6355C59.1635 22.6633 58.7814 22.7891 58.4109 23.0129C57.8784 23.3346 57.5252 23.7792 57.3513 24.3467C57.1852 24.9095 57.2562 25.5077 57.5644 26.1412L61.57 23.7212Z" fill="#F04545"/>
<path d="M68.9017 24.3671C68.3966 24.627 67.9005 24.776 67.4134 24.8141C66.9222 24.8443 66.4824 24.7671 66.0939 24.5825C65.7013 24.3899 65.3904 24.0997 65.1611 23.7118L66.2916 23.1302C66.4919 23.4419 66.7818 23.6317 67.1611 23.6996C67.5484 23.7633 67.9666 23.6797 68.4155 23.4487C68.8325 23.2342 69.114 22.9731 69.2601 22.6652C69.4062 22.3573 69.4074 22.0633 69.2638 21.7831C69.116 21.495 68.879 21.3488 68.5526 21.3447C68.2222 21.3326 67.7535 21.3967 67.1465 21.537C66.5918 21.6606 66.1252 21.7387 65.7469 21.7715C65.3724 21.7922 65.0073 21.7322 64.6515 21.5915C64.2995 21.4387 64.0148 21.1502 63.7973 20.7259C63.6249 20.3897 63.567 20.03 63.6238 19.6467C63.6806 19.2634 63.8523 18.8968 64.1391 18.5469C64.4217 18.1891 64.7995 17.8885 65.2725 17.6451C66.0021 17.2698 66.6858 17.1507 67.3236 17.2879C67.9614 17.4252 68.4605 17.8057 68.8209 18.4296L67.7266 18.9927C67.526 18.6608 67.2441 18.4568 66.8808 18.3807C66.5255 18.3005 66.1354 18.3696 65.7105 18.5883C65.3177 18.7904 65.0481 19.0353 64.9018 19.323C64.7555 19.6108 64.7521 19.8907 64.8916 20.1629C65.0025 20.379 65.163 20.5241 65.3731 20.598C65.5872 20.6599 65.8211 20.6812 66.0747 20.662C66.3322 20.6307 66.6761 20.5701 67.1062 20.4803C67.645 20.365 68.0955 20.2951 68.4578 20.2706C68.816 20.238 69.163 20.2922 69.4987 20.4331C69.8424 20.5699 70.1209 20.8363 70.3341 21.2325C70.5188 21.5927 70.5848 21.9685 70.5322 22.3598C70.4795 22.7511 70.3119 23.1256 70.0293 23.4835C69.7506 23.8292 69.3747 24.1238 68.9017 24.3671Z" fill="#F04545"/>
<path d="M70.3133 13.8312C70.1013 13.9313 69.8875 13.9427 69.6718 13.8655C69.4561 13.7882 69.2985 13.6438 69.199 13.4321C69.0994 13.2205 69.0885 13.0067 69.1664 12.7909C69.2442 12.5751 69.3891 12.4171 69.601 12.317C69.8048 12.2207 70.0105 12.2132 70.218 12.2942C70.4337 12.3715 70.5913 12.5159 70.6909 12.7276C70.7905 12.9392 70.8013 13.153 70.7235 13.3688C70.6538 13.5808 70.5171 13.7349 70.3133 13.8312ZM71.3626 14.6639L74.5103 21.3556L73.3975 21.8811L70.2498 15.1894L71.3626 14.6639Z" fill="#F04545"/>
<path d="M77.2915 11.6976C77.8917 11.4752 78.464 11.4118 79.0084 11.5075C79.5613 11.6 80.0208 11.8039 80.3868 12.1193L79.92 10.8529L81.0865 10.4205L83.7002 17.5123C83.9335 18.1455 84.0052 18.7571 83.9152 19.347C83.8283 19.9454 83.5826 20.4779 83.1781 20.9445C82.7821 21.408 82.2502 21.7635 81.5824 22.011C80.6696 22.3494 79.8295 22.4161 79.0622 22.2111C78.2949 22.0061 77.7195 21.5525 77.3358 20.8502L78.4769 20.4273C78.7592 20.8024 79.1457 21.043 79.6363 21.149C80.1301 21.2635 80.6559 21.2173 81.2137 21.0105C81.8477 20.7755 82.2902 20.386 82.5412 19.842C82.8007 19.2948 82.7982 18.6623 82.5337 17.9447L81.997 16.4884C81.9181 16.9782 81.7045 17.4412 81.356 17.8775C81.0076 18.3137 80.5333 18.643 79.9332 18.8655C79.3162 19.0942 78.6981 19.1506 78.0789 19.0346C77.4682 18.9155 76.918 18.6349 76.4284 18.1926C75.9387 17.7504 75.5648 17.1789 75.3065 16.4782C75.0452 15.769 74.9602 15.0952 75.0515 14.4568C75.1398 13.8099 75.3788 13.2463 75.7686 12.766C76.1668 12.2825 76.6745 11.9264 77.2915 11.6976ZM81.1942 14.3102C81.0013 13.7867 80.7276 13.37 80.3732 13.0599C80.0187 12.7499 79.6224 12.5609 79.1843 12.493C78.7515 12.4136 78.3196 12.4537 77.8885 12.6135C77.4574 12.7733 77.1017 13.0203 76.8214 13.3545C76.541 13.6887 76.3668 14.0892 76.2986 14.5559C76.2304 15.0226 76.2927 15.5176 76.4857 16.0411C76.6817 16.573 76.9585 16.9981 77.316 17.3166C77.6705 17.6267 78.0641 17.8214 78.4969 17.9009C78.9266 17.9719 79.357 17.9275 79.7881 17.7678C80.2191 17.608 80.5748 17.361 80.8552 17.0267C81.1408 16.681 81.3178 16.2747 81.386 15.808C81.451 15.3329 81.3871 14.8336 81.1942 14.3102Z" fill="#F04545"/>
<path d="M87.7758 7.85966C88.6427 7.61321 89.4195 7.67775 90.106 8.0533C90.79 8.42019 91.2712 9.09734 91.5497 10.0847L92.7329 14.2812L91.5625 14.6139L90.4269 10.5864C90.2266 9.87612 89.8962 9.3853 89.4358 9.1139C88.9729 8.83384 88.4336 8.7813 87.8181 8.95628C87.1939 9.13373 86.7503 9.47032 86.4874 9.96606C86.2332 10.4593 86.2111 11.0784 86.4211 11.8233L87.5311 15.76L86.3477 16.0964L84.3402 8.97662L85.5236 8.64022L85.8093 9.65361C85.9408 9.22328 86.1779 8.85183 86.5206 8.53924C86.8719 8.2242 87.2903 7.99767 87.7758 7.85966Z" fill="#F04545"/>
<path d="M98.0961 8.96836C97.8673 9.01903 97.6564 8.98277 97.4633 8.85959C97.2703 8.73642 97.1487 8.56053 97.0987 8.33194C97.0486 8.10335 97.0854 7.89239 97.2091 7.69906C97.3328 7.50573 97.5091 7.38373 97.7378 7.33306C97.9578 7.28435 98.1599 7.32255 98.3442 7.44768C98.5372 7.57086 98.6588 7.74673 98.7089 7.97532C98.7589 8.20391 98.7221 8.41488 98.5984 8.60821C98.4835 8.79959 98.316 8.91964 98.0961 8.96836Z" fill="#F04545"/>
<path d="M105.296 1.57245L105.881 7.49916C105.963 8.33239 106.225 8.93019 106.668 9.29256C107.121 9.65401 107.71 9.79801 108.436 9.72455C109.153 9.652 109.693 9.39372 110.057 8.94973C110.429 8.50484 110.574 7.86577 110.492 7.03254L109.908 1.10583L111.131 0.982037L111.715 6.89531C111.791 7.67478 111.699 8.34917 111.439 8.91849C111.177 9.47884 110.79 9.91614 110.278 10.2304C109.775 10.5437 109.192 10.7339 108.528 10.801C107.865 10.8682 107.252 10.799 106.688 10.5936C106.134 10.3873 105.673 10.0357 105.308 9.53883C104.95 9.0321 104.733 8.38899 104.656 7.60951L104.073 1.69625L105.296 1.57245Z" fill="#F04545"/>
<path d="M117.669 9.90037C117.101 9.91835 116.59 9.83996 116.134 9.6652C115.678 9.48145 115.315 9.2227 115.044 8.88894C114.773 8.54618 114.617 8.15022 114.577 7.70103L115.846 7.66081C115.893 8.0287 116.073 8.32481 116.386 8.54913C116.708 8.77316 117.121 8.87719 117.625 8.86122C118.093 8.84638 118.459 8.73118 118.723 8.5156C118.987 8.30003 119.115 8.03473 119.106 7.7197C119.096 7.39567 118.945 7.16171 118.653 7.01783C118.36 6.86495 117.91 6.72155 117.302 6.58765C116.749 6.46104 116.294 6.33129 115.939 6.19841C115.592 6.05623 115.289 5.84513 115.028 5.56509C114.777 5.27577 114.644 4.89259 114.63 4.41555C114.619 4.03752 114.721 3.68742 114.937 3.36526C115.153 3.0431 115.466 2.78546 115.875 2.59232C116.283 2.39018 116.753 2.2807 117.284 2.26386C118.104 2.2379 118.771 2.42395 119.288 2.82201C119.804 3.22007 120.091 3.77856 120.147 4.49748L118.918 4.53642C118.88 4.15025 118.714 3.84471 118.419 3.61982C118.133 3.39464 117.751 3.28962 117.274 3.30473C116.833 3.31871 116.485 3.42435 116.229 3.62164C115.973 3.81893 115.85 4.07058 115.859 4.37661C115.866 4.61963 115.948 4.81972 116.106 4.97689C116.273 5.12476 116.474 5.2445 116.711 5.33609C116.957 5.4184 117.293 5.51135 117.72 5.61495C118.255 5.74213 118.691 5.87245 119.029 6.00591C119.366 6.13036 119.655 6.3284 119.898 6.6C120.149 6.87133 120.285 7.23186 120.308 7.68161C120.319 8.08665 120.217 8.45474 120.002 8.7859C119.786 9.11706 119.474 9.38371 119.065 9.58585C118.665 9.7787 118.2 9.88354 117.669 9.90037Z" fill="#F04545"/>
<path d="M129.195 5.6605C129.185 5.89444 129.161 6.14132 129.123 6.40115L123.21 6.15861C123.224 6.88927 123.446 7.47078 123.878 7.90313C124.319 8.32686 124.864 8.55201 125.512 8.57859C126.043 8.60037 126.489 8.49698 126.85 8.26844C127.221 8.03127 127.488 7.70869 127.65 7.3007L128.973 7.35497C128.744 8.05767 128.322 8.62178 127.709 9.0473C127.096 9.46382 126.348 9.654 125.466 9.61782C124.764 9.58903 124.141 9.40572 123.597 9.06791C123.062 8.73048 122.65 8.26737 122.36 7.6786C122.07 7.08083 121.942 6.39954 121.976 5.63473C122.009 4.86993 122.191 4.20587 122.523 3.64257C122.854 3.07927 123.3 2.65591 123.863 2.37251C124.434 2.08048 125.08 1.94923 125.8 1.97876C126.502 2.00756 127.116 2.18599 127.643 2.51406C128.169 2.84213 128.565 3.28201 128.829 3.83368C129.103 4.37673 129.225 4.98567 129.195 5.6605ZM127.938 5.35201C127.958 4.88413 127.872 4.47949 127.68 4.13808C127.488 3.78768 127.216 3.51961 126.863 3.33389C126.52 3.13954 126.132 3.0335 125.701 3.01579C125.08 2.99031 124.54 3.16648 124.082 3.54429C123.633 3.92247 123.361 4.46118 123.268 5.16041L127.938 5.35201Z" fill="#F04545"/>
<path d="M132.904 3.562C133.159 3.16037 133.495 2.86116 133.911 2.66436C134.337 2.4684 134.837 2.39685 135.411 2.44973L135.291 3.71412L134.968 3.68437C133.596 3.55796 132.839 4.23903 132.698 5.7276L132.318 9.73598L131.094 9.6232L131.793 2.25208L133.017 2.36487L132.904 3.562Z" fill="#F04545"/>
<path d="M143.877 2.41943L143.263 5.5078L146.628 6.16884L146.431 7.16295L143.065 6.50192L142.432 9.68308L146.195 10.4222L145.997 11.4163L141.028 10.4404L142.869 1.18848L147.838 2.16442L147.641 3.15854L143.877 2.41943Z" fill="#F04545"/>
<path d="M152.328 12.735L151.324 9.62809L148.994 11.8746L147.752 11.5541L150.994 8.59359L149.62 4.3864L150.967 4.7339L151.975 7.8277L154.288 5.59085L155.53 5.91137L152.305 8.8622L153.675 13.0825L152.328 12.735Z" fill="#F04545"/>
<path d="M158.497 7.86464C158.867 7.54565 159.324 7.33337 159.867 7.22781C160.422 7.11672 161.001 7.16693 161.603 7.37844C162.223 7.5959 162.731 7.94124 163.127 8.41443C163.532 8.89061 163.782 9.45129 163.879 10.0965C163.979 10.7331 163.902 11.4084 163.65 12.1223C163.401 12.8276 163.034 13.4059 162.551 13.857C162.067 14.3081 161.516 14.5972 160.898 14.7244C160.289 14.8546 159.675 14.811 159.055 14.5935C158.46 14.385 157.98 14.0686 157.615 13.6442C157.261 13.2144 157.035 12.7581 156.939 12.2753L155.313 16.8771L154.154 16.4705L157.792 6.17052L158.952 6.57715L158.497 7.86464ZM162.465 11.7067C162.652 11.1798 162.707 10.6837 162.633 10.2183C162.559 9.75287 162.375 9.35414 162.082 9.02209C161.798 8.69302 161.439 8.45252 161.006 8.30059C160.581 8.15165 160.149 8.11935 159.708 8.20372C159.28 8.28256 158.884 8.48296 158.523 8.80493C158.172 9.12138 157.905 9.5388 157.722 10.0572C157.536 10.5841 157.479 11.0845 157.55 11.5584C157.633 12.0268 157.815 12.4297 158.096 12.7673C158.39 13.0994 158.748 13.3399 159.173 13.4888C159.606 13.6407 160.037 13.6773 160.466 13.5984C160.906 13.5141 161.301 13.3137 161.652 12.9972C162.005 12.6723 162.276 12.2421 162.465 11.7067Z" fill="#F04545"/>
<path d="M172.707 15.3228C172.612 15.537 172.5 15.7582 172.369 15.9862L166.96 13.5999C166.705 14.2856 166.7 14.9087 166.943 15.4694C167.199 16.0254 167.623 16.4342 168.215 16.6957C168.701 16.91 169.154 16.9767 169.574 16.8959C170.005 16.8105 170.371 16.6073 170.671 16.2863L171.881 16.8202C171.411 17.3913 170.813 17.763 170.087 17.9353C169.365 18.0994 168.6 18.0034 167.793 17.6475C167.151 17.3641 166.639 16.9657 166.256 16.4521C165.882 15.9421 165.668 15.3599 165.614 14.7054C165.563 14.0426 165.693 13.361 166.004 12.6606C166.314 11.9602 166.727 11.408 167.24 11.0042C167.754 10.6003 168.324 10.369 168.951 10.3104C169.589 10.2472 170.237 10.3609 170.896 10.6514C171.538 10.9348 172.044 11.3254 172.414 11.8235C172.783 12.3216 172.99 12.876 173.035 13.4867C173.091 14.0927 172.982 14.7047 172.707 15.3228ZM171.651 14.5758C171.841 14.1473 171.909 13.7388 171.855 13.3504C171.804 12.9537 171.649 12.6045 171.389 12.3026C171.141 11.9961 170.82 11.7557 170.425 11.5814C169.857 11.3308 169.29 11.2978 168.726 11.4824C168.17 11.6706 167.721 12.0734 167.378 12.6907L171.651 14.5758Z" fill="#F04545"/>
<path d="M177.116 14.8207C177.5 14.5402 177.922 14.3848 178.382 14.3544C178.849 14.328 179.34 14.4447 179.854 14.7045L179.278 15.838L178.989 15.6918C177.761 15.0709 176.808 15.4276 176.13 16.762L174.306 20.3553L173.21 19.8013L176.564 13.1935L177.66 13.7475L177.116 14.8207Z" fill="#F04545"/>
<path d="M183.088 15.1349C182.883 15.0223 182.748 14.856 182.685 14.636C182.621 14.4159 182.646 14.2032 182.759 13.9979C182.872 13.7926 183.039 13.6578 183.259 13.5936C183.479 13.5294 183.692 13.5535 183.897 13.6661C184.094 13.7743 184.221 13.9362 184.276 14.152C184.34 14.372 184.315 14.5847 184.202 14.79C184.089 14.9953 183.922 15.1301 183.702 15.1943C183.49 15.2629 183.285 15.2431 183.088 15.1349ZM183.028 16.4748L179.452 22.9659L178.375 22.3751L181.951 15.8839L183.028 16.4748Z" fill="#F04545"/>
<path d="M189.608 24.2802C189.48 24.4765 189.333 24.6766 189.167 24.8807L184.216 21.6526C183.854 22.2885 183.748 22.9028 183.898 23.4957C184.06 24.0859 184.413 24.5578 184.955 24.9116C185.4 25.2015 185.836 25.3404 186.263 25.3282C186.702 25.3134 187.096 25.1718 187.444 24.9032L188.551 25.6255C187.996 26.1136 187.346 26.3842 186.602 26.4372C185.863 26.4828 185.124 26.2648 184.385 25.7832C183.798 25.4 183.357 24.924 183.062 24.3552C182.775 23.7914 182.658 23.182 182.71 22.527C182.767 21.8645 183.005 21.2125 183.424 20.571C183.844 19.9296 184.339 19.4508 184.911 19.1349C185.483 18.819 186.083 18.6826 186.711 18.7257C187.35 18.7662 187.972 18.983 188.575 19.376C189.162 19.7593 189.598 20.2266 189.883 20.778C190.167 21.3294 190.282 21.9101 190.227 22.5201C190.184 23.1275 189.978 23.7142 189.608 24.2802ZM188.686 23.3724C188.943 22.9799 189.076 22.5876 189.085 22.1954C189.099 21.7956 189.002 21.4257 188.795 21.0858C188.6 20.7432 188.321 20.454 187.959 20.2182C187.44 19.8792 186.886 19.7553 186.3 19.8466C185.721 19.9428 185.213 20.2681 184.775 20.8223L188.686 23.3724Z" fill="#F04545"/>
<path d="M196.681 24.6776C197.394 25.225 197.805 25.8866 197.912 26.6621C198.025 27.4306 197.768 28.2223 197.142 29.0375L194.48 32.5018L193.517 31.7627L196.071 28.4378C196.522 27.8515 196.719 27.2924 196.663 26.7605C196.612 26.2214 196.333 25.7576 195.826 25.3689C195.312 24.9747 194.778 24.8208 194.224 24.9072C193.677 24.999 193.167 25.3524 192.695 25.9673L190.198 29.2171L189.224 28.4699L193.74 22.5924L194.714 23.3396L194.071 24.1762C194.495 24.0237 194.934 23.9911 195.388 24.0785C195.85 24.1713 196.281 24.371 196.681 24.6776Z" fill="#F04545"/>
<path d="M198.615 30.6231C199.127 30.0528 199.687 29.6584 200.294 29.44C200.908 29.2148 201.52 29.1651 202.133 29.2906C202.752 29.4222 203.323 29.7223 203.845 30.1908C204.521 30.7975 204.929 31.4605 205.069 32.1797C205.216 32.9049 205.097 33.6224 204.714 34.3322L203.73 33.4492C203.937 33.0297 203.991 32.5995 203.891 32.1586C203.798 31.7238 203.551 31.3262 203.149 30.9657C202.627 30.4972 202.043 30.2999 201.396 30.3739C200.755 30.4412 200.14 30.8035 199.549 31.461C198.952 32.1252 198.652 32.7827 198.648 33.4333C198.644 34.0839 198.903 34.6435 199.425 35.112C199.827 35.4724 200.246 35.6788 200.683 35.7313C201.119 35.7837 201.544 35.6805 201.958 35.4217L202.942 36.3047C202.289 36.7361 201.587 36.9247 200.838 36.8704C200.095 36.8094 199.392 36.4816 198.729 35.8869C198.207 35.4184 197.847 34.8835 197.65 34.2823C197.459 33.687 197.443 33.0726 197.601 32.439C197.759 31.8054 198.097 31.2001 198.615 30.6231Z" fill="#F04545"/>
<path d="M211.022 41.7792C210.852 41.9411 210.664 42.1025 210.456 42.2636L206.375 37.9893C205.878 38.5262 205.635 39.1005 205.645 39.7122C205.668 40.3242 205.903 40.8644 206.351 41.3328C206.717 41.7166 207.109 41.9513 207.528 42.037C207.959 42.1228 208.374 42.0746 208.773 41.8923L209.686 42.8487C209.034 43.1974 208.34 43.3128 207.604 43.1947C206.875 43.0704 206.206 42.6895 205.597 42.0519C205.113 41.5445 204.792 40.9801 204.635 40.3588C204.485 39.744 204.51 39.1236 204.71 38.4974C204.916 37.8649 205.297 37.2841 205.851 36.7548C206.406 36.2256 206.998 35.8723 207.626 35.695C208.255 35.5177 208.87 35.5216 209.47 35.7068C210.084 35.8922 210.639 36.2452 211.136 36.7656C211.62 37.2731 211.938 37.8278 212.088 38.4299C212.239 39.0319 212.218 39.6238 212.026 40.2056C211.846 40.7877 211.511 41.3122 211.022 41.7792ZM210.332 40.6844C210.671 40.3606 210.89 40.0087 210.989 39.6287C211.094 39.2425 211.084 38.8601 210.96 38.4816C210.848 38.1033 210.643 37.758 210.345 37.4458C209.916 36.9969 209.406 36.75 208.815 36.7052C208.23 36.6669 207.661 36.8678 207.109 37.3079L210.332 40.6844Z" fill="#F04545"/>
<path d="M215.526 47.0099C215.376 46.8311 215.31 46.6275 215.33 46.3991C215.35 46.1706 215.449 45.9808 215.629 45.8297C215.808 45.6786 216.012 45.6126 216.24 45.6317C216.469 45.6509 216.658 45.7499 216.809 45.9287C216.954 46.1006 217.013 46.2974 216.988 46.5189C216.968 46.7474 216.869 46.9372 216.689 47.0883C216.51 47.2394 216.306 47.3054 216.078 47.2863C215.855 47.274 215.671 47.1819 215.526 47.0099Z" fill="#F04545"/>
<path d="M220.826 51.3418C221.599 50.8423 222.404 50.5681 223.242 50.5192C224.087 50.4654 224.876 50.6244 225.61 50.9962C226.349 51.3756 226.954 51.9319 227.427 52.665C227.983 53.5266 228.261 54.4133 228.259 55.325C228.257 56.2367 227.968 57.0872 227.394 57.8765L226.596 56.6408C226.932 56.1131 227.094 55.5582 227.084 54.9761C227.078 54.4015 226.889 53.827 226.519 53.2526C226.163 52.7008 225.715 52.289 225.174 52.0171C224.634 51.7453 224.045 51.6388 223.407 51.6979C222.776 51.7521 222.143 51.9848 221.507 52.3961C220.878 52.8025 220.406 53.2846 220.09 53.8425C219.781 54.3954 219.64 54.9744 219.665 55.5792C219.691 56.184 219.881 56.7623 220.238 57.314C220.608 57.8884 221.05 58.2989 221.563 58.5454C222.089 58.7947 222.661 58.8746 223.28 58.7853L224.077 60.021C223.13 60.2159 222.24 60.1268 221.409 59.7536C220.586 59.3756 219.896 58.7558 219.34 57.8942C218.867 57.1611 218.606 56.3821 218.556 55.5571C218.519 54.7348 218.695 53.9515 219.084 53.2073C219.473 52.463 220.054 51.8412 220.826 51.3418Z" fill="#F04545"/>
<path d="M228.804 60.8892C229.279 60.864 229.717 60.9641 230.118 61.1895C230.523 61.4228 230.869 61.7887 231.157 62.2874L230.056 62.924L229.895 62.6435C229.207 61.4514 228.215 61.2301 226.919 61.9796L223.431 63.9979L222.817 62.9344L229.233 59.2229L229.846 60.2864L228.804 60.8892Z" fill="#F04545"/>
<path d="M232.425 72.0968C232.213 72.1985 231.984 72.2939 231.737 72.383L229.181 67.0537C228.542 67.4111 228.133 67.8826 227.954 68.4681C227.787 69.0578 227.844 69.6446 228.124 70.2286C228.353 70.7072 228.654 71.0519 229.025 71.2626C229.408 71.4776 229.817 71.56 230.253 71.5098L230.825 72.7022C230.098 72.8327 229.403 72.7281 228.74 72.3883C228.085 72.0446 227.567 71.4753 227.185 70.6804C226.882 70.0477 226.752 69.4115 226.795 68.7716C226.842 68.1399 227.057 67.557 227.441 67.0228C227.833 66.4846 228.374 66.0493 229.064 65.7168C229.755 65.3844 230.426 65.2309 231.078 65.2563C231.731 65.2818 232.313 65.4754 232.827 65.8372C233.353 66.2032 233.771 66.7107 234.082 67.3596C234.386 67.9923 234.516 68.6185 234.473 69.2382C234.431 69.8579 234.228 70.4148 233.865 70.9091C233.514 71.4075 233.034 71.8034 232.425 72.0968ZM232.108 70.8416C232.53 70.6382 232.847 70.3709 233.058 70.0396C233.277 69.7044 233.386 69.3374 233.385 68.9386C233.395 68.544 233.307 68.1521 233.121 67.7627C232.852 67.203 232.444 66.8105 231.896 66.5851C231.352 66.3679 230.749 66.3834 230.088 66.6317L232.108 70.8416Z" fill="#F04545"/>
<path d="M233.47 74.0337C234.178 73.7653 234.851 73.6735 235.49 73.7583C236.138 73.84 236.702 74.0733 237.185 74.4582C237.67 74.8514 238.029 75.3554 238.261 75.97C238.489 76.5761 238.557 77.1519 238.464 77.6971C238.371 78.2424 238.168 78.6996 237.854 79.0688L239.118 78.5893L239.556 79.7511L232.628 82.3784L232.19 81.2166L233.479 80.7276C232.989 80.6537 232.523 80.4405 232.082 80.0882C231.652 79.7411 231.325 79.2686 231.1 78.6709C230.868 78.0563 230.81 77.4431 230.926 76.8313C231.042 76.2196 231.32 75.6667 231.76 75.1727C232.2 74.6787 232.77 74.299 233.47 74.0337ZM235.667 79.8982C236.189 79.7 236.605 79.4222 236.913 79.0647C237.221 78.7072 237.408 78.3091 237.474 77.8703C237.552 77.4368 237.509 77.0054 237.347 76.576C237.186 76.1466 236.937 75.7935 236.601 75.5166C236.266 75.2397 235.864 75.0696 235.397 75.0061C234.93 74.9427 234.435 75.01 233.912 75.2082C233.381 75.4096 232.958 75.6906 232.641 76.0513C232.332 76.4088 232.139 76.8043 232.062 77.2378C231.993 77.6681 232.04 78.0979 232.201 78.5273C232.363 78.9567 232.612 79.3098 232.948 79.5867C233.295 79.8688 233.702 80.0416 234.169 80.105C234.645 80.1653 235.144 80.0963 235.667 79.8982Z" fill="#F04545"/>
<path d="M240.293 84.549L236.134 85.8825C235.791 85.9926 235.57 86.144 235.47 86.3365C235.379 86.5263 235.391 86.8013 235.506 87.1614L235.78 88.0231L234.789 88.341L234.453 87.2864C234.246 86.6347 234.24 86.0978 234.437 85.6757C234.633 85.2535 235.075 84.9323 235.762 84.7121L239.92 83.3786L239.63 82.4654L240.595 82.1558L240.886 83.0689L242.663 82.4992L243.035 83.6696L241.259 84.2393L241.844 86.0785L240.879 86.3882L240.293 84.549Z" fill="#F04545"/>
<path d="M241.283 96.5492C241.055 96.6033 240.811 96.6473 240.55 96.6812L239.2 90.9245C238.5 91.1366 237.999 91.5095 237.699 92.0432C237.409 92.5836 237.338 93.1693 237.486 93.8001C237.607 94.3171 237.827 94.7184 238.143 95.004C238.471 95.2963 238.853 95.4648 239.29 95.5094L239.592 96.7974C238.854 96.7688 238.198 96.5173 237.623 96.0429C237.058 95.5664 236.675 94.8988 236.473 94.0401C236.313 93.3567 236.323 92.707 236.502 92.091C236.684 91.4838 237.019 90.9603 237.508 90.5206C238.006 90.0789 238.628 89.7697 239.374 89.593C240.119 89.4164 240.807 89.4105 241.438 89.5755C242.069 89.7404 242.597 90.0547 243.02 90.5186C243.455 90.9891 243.754 91.5749 243.919 92.2759C244.079 92.9593 244.072 93.5992 243.897 94.1956C243.722 94.792 243.404 95.2927 242.944 95.6978C242.494 96.1096 241.941 96.3934 241.283 96.5492ZM241.243 95.2545C241.699 95.1465 242.066 94.9532 242.343 94.6748C242.629 94.3943 242.814 94.0591 242.898 93.6691C242.994 93.2858 242.992 92.8839 242.893 92.4633C242.752 91.8587 242.437 91.3874 241.951 91.0495C241.466 90.7204 240.875 90.6062 240.176 90.7069L241.243 95.2545Z" fill="#F04545"/>
<path d="M239.773 110.385L239.635 109.164L246.529 103.389L239.078 104.253L238.939 103.032L248.31 101.946L248.448 103.167L241.568 108.94L249.005 108.078L249.144 109.299L239.773 110.385Z" fill="#F04545"/>
<path d="M244.532 119.443C244.298 119.452 244.05 119.448 243.788 119.432L243.573 113.52C242.846 113.593 242.283 113.863 241.885 114.329C241.497 114.803 241.314 115.365 241.338 116.013C241.357 116.544 241.495 116.98 241.751 117.321C242.016 117.671 242.358 117.91 242.777 118.038L242.825 119.361C242.107 119.191 241.512 118.817 241.04 118.241C240.578 117.664 240.33 116.935 240.298 116.053C240.273 115.351 240.408 114.715 240.702 114.145C240.997 113.584 241.427 113.135 241.992 112.797C242.565 112.459 243.235 112.276 244 112.246C244.765 112.216 245.441 112.343 246.028 112.626C246.616 112.91 247.072 113.32 247.398 113.857C247.734 114.403 247.914 115.036 247.94 115.755C247.966 116.457 247.835 117.084 247.549 117.636C247.263 118.188 246.855 118.618 246.325 118.927C245.805 119.245 245.207 119.417 244.532 119.443ZM244.742 118.164C245.21 118.146 245.607 118.027 245.933 117.807C246.267 117.587 246.514 117.293 246.671 116.927C246.839 116.569 246.915 116.174 246.899 115.742C246.876 115.121 246.659 114.598 246.247 114.172C245.835 113.756 245.277 113.53 244.573 113.494L244.742 118.164Z" fill="#F04545"/>
<path d="M247.844 132.149L240.607 129.379L240.69 128.112L246.671 126.701L240.923 124.553L241.007 123.285L248.546 121.431L248.464 122.685L242.151 123.994L248.233 126.217L248.151 127.471L241.818 128.873L247.924 130.935L247.844 132.149Z" fill="#F04545"/>
<path d="M248.578 144.124L247.592 143.963L248.01 141.43L239.706 140.081L239.906 138.868L248.211 140.217L248.631 137.67L249.618 137.831L248.578 144.124Z" fill="#F04545"/>
<path d="M245.628 150.18C245.495 150.723 245.257 151.184 244.914 151.565C244.579 151.947 244.15 152.205 243.626 152.337C243.1 152.479 242.505 152.469 241.84 152.308L237.602 151.28L237.891 150.098L241.959 151.085C242.676 151.259 243.267 151.212 243.731 150.944C244.204 150.679 244.517 150.235 244.669 149.614C244.823 148.984 244.75 148.433 244.448 147.961C244.145 147.498 243.617 147.175 242.864 146.993L238.888 146.029L239.181 144.834L248.891 147.188L248.599 148.383L245.056 147.524C245.365 147.849 245.57 148.242 245.671 148.702C245.769 149.171 245.755 149.664 245.628 150.18Z" fill="#F04545"/>
<path d="M245.284 156.113C245.347 155.888 245.479 155.718 245.679 155.605C245.879 155.493 246.091 155.468 246.317 155.53C246.542 155.593 246.711 155.724 246.823 155.923C246.936 156.123 246.96 156.336 246.897 156.561C246.836 156.778 246.707 156.939 246.51 157.043C246.31 157.156 246.097 157.181 245.872 157.118C245.646 157.055 245.477 156.924 245.365 156.725C245.25 156.534 245.223 156.33 245.284 156.113ZM243.966 156.364L236.837 154.384L237.169 153.2L244.298 155.18L243.966 156.364Z" fill="#F04545"/>
<path d="M242.119 163.278C241.81 164.125 241.301 164.717 240.593 165.054C239.894 165.394 239.062 165.389 238.098 165.039L234 163.55L234.417 162.407L238.351 163.836C239.044 164.088 239.636 164.107 240.127 163.892C240.626 163.68 240.986 163.274 241.205 162.673C241.428 162.063 241.416 161.508 241.168 161.005C240.918 160.511 240.429 160.132 239.701 159.868L235.857 158.471L236.28 157.316L243.232 159.842L242.81 160.997L241.82 160.638C242.092 160.996 242.254 161.404 242.306 161.864C242.355 162.333 242.293 162.804 242.119 163.278Z" fill="#F04545"/>
<path d="M239.043 171.75C238.772 172.33 238.41 172.778 237.955 173.094C237.496 173.418 237.026 173.597 236.543 173.631L237.767 174.199L237.242 175.327L230.385 172.147C229.773 171.863 229.291 171.481 228.94 171C228.58 170.515 228.379 169.965 228.339 169.35C228.294 168.743 228.422 168.116 228.723 167.471C229.134 166.588 229.685 165.95 230.375 165.554C231.066 165.159 231.795 165.075 232.563 165.302L232.049 166.405C231.583 166.338 231.139 166.44 230.715 166.711C230.283 166.977 229.941 167.38 229.69 167.919C229.404 168.532 229.364 169.12 229.569 169.682C229.769 170.252 230.217 170.698 230.911 171.019L232.319 171.672C232.03 171.27 231.856 170.792 231.796 170.238C231.737 169.683 231.842 169.116 232.113 168.536C232.391 167.94 232.791 167.464 233.313 167.11C233.831 166.765 234.421 166.576 235.081 166.544C235.741 166.512 236.41 166.654 237.087 166.968C237.773 167.286 238.308 167.703 238.693 168.219C239.086 168.739 239.313 169.307 239.374 169.921C239.431 170.544 239.321 171.154 239.043 171.75ZM234.425 172.649C234.931 172.884 235.419 172.986 235.89 172.956C236.361 172.926 236.776 172.78 237.135 172.52C237.499 172.271 237.778 171.939 237.973 171.522C238.167 171.105 238.246 170.68 238.21 170.246C238.174 169.812 238.016 169.406 237.736 169.027C237.455 168.649 237.062 168.342 236.556 168.108C236.042 167.869 235.545 167.763 235.066 167.789C234.596 167.82 234.178 167.959 233.814 168.207C233.458 168.46 233.183 168.794 232.989 169.211C232.795 169.628 232.716 170.053 232.752 170.487C232.792 170.933 232.953 171.345 233.233 171.724C233.521 172.106 233.919 172.414 234.425 172.649Z" fill="#F04545"/>
<path d="M228.228 176.918C228.502 176.421 228.83 176.02 229.214 175.716C229.605 175.416 230.013 175.234 230.439 175.17C230.873 175.11 231.293 175.176 231.701 175.369L231.087 176.482C230.746 176.336 230.4 176.341 230.047 176.497C229.689 176.661 229.389 176.964 229.145 177.406C228.919 177.817 228.831 178.191 228.882 178.527C228.933 178.863 229.097 179.107 229.373 179.259C229.657 179.415 229.935 179.403 230.208 179.224C230.49 179.049 230.843 178.734 231.269 178.279C231.66 177.866 232.004 177.541 232.3 177.302C232.599 177.075 232.936 176.921 233.31 176.838C233.688 176.768 234.086 176.847 234.504 177.077C234.835 177.259 235.084 177.524 235.251 177.873C235.419 178.222 235.481 178.621 235.439 179.071C235.404 179.525 235.259 179.985 235.002 180.451C234.606 181.17 234.105 181.65 233.499 181.894C232.892 182.137 232.265 182.101 231.617 181.786L232.21 180.708C232.562 180.871 232.911 180.882 233.255 180.742C233.595 180.609 233.88 180.334 234.111 179.916C234.324 179.529 234.411 179.175 234.371 178.855C234.332 178.535 234.178 178.302 233.91 178.155C233.697 178.038 233.482 178.008 233.267 178.064C233.054 178.132 232.848 178.246 232.648 178.403C232.452 178.573 232.2 178.816 231.893 179.13C231.51 179.527 231.175 179.837 230.888 180.06C230.609 180.287 230.29 180.436 229.933 180.507C229.571 180.586 229.191 180.522 228.792 180.313C228.437 180.118 228.172 179.844 227.997 179.491C227.822 179.138 227.751 178.734 227.786 178.28C227.824 177.838 227.971 177.384 228.228 176.918Z" fill="#F04545"/>
<path d="M229.004 193.659L228.005 193.569L228.416 191.575L226.714 192.708L226.255 191.775L228.159 191.09L226.352 190.123L226.923 189.285L228.494 190.598L228.422 188.57L229.478 188.65L229.067 190.644L230.75 189.515L231.216 190.436L229.279 191.147L231.097 192.121L230.518 192.971L228.951 191.628L229.004 193.659Z" fill="#F04545"/>
</svg>
