<svg width="1457" height="1463" viewBox="0 0 1457 1463" fill="none" xmlns="http://www.w3.org/2000/svg">
<path d="M701.576 1461.6C695.577 1461.12 690.486 1459.57 686.302 1456.96C682.062 1454.4 678.952 1450.95 676.974 1446.61C674.944 1442.28 674.157 1437.3 674.614 1431.69C675.071 1426.07 676.653 1421.28 679.358 1417.33C682.006 1413.42 685.63 1410.55 690.23 1408.7C694.773 1406.9 700.043 1406.25 706.042 1406.73L723.17 1408.12L718.704 1462.99L701.576 1461.6ZM705.562 1412.64C698.458 1412.06 692.886 1413.49 688.847 1416.91C684.803 1420.39 682.506 1425.51 681.955 1432.28C681.4 1439.1 682.86 1444.58 686.337 1448.72C689.761 1452.85 694.999 1455.21 702.05 1455.78L711.996 1456.58L715.507 1413.44L705.562 1412.64Z" fill="#F04545"/>
<path d="M622.535 1421.66C622.751 1420.31 623.058 1418.89 623.455 1417.41L657.709 1422.85C658.12 1418.59 657.214 1415.06 654.988 1412.26C652.703 1409.5 649.683 1407.82 645.929 1407.22C642.853 1406.73 640.186 1407.03 637.929 1408.11C635.611 1409.24 633.844 1410.93 632.628 1413.19L624.964 1411.97C626.767 1408.05 629.596 1405.06 633.452 1403C637.3 1401 641.778 1400.4 646.888 1401.22C650.954 1401.86 654.459 1403.35 657.401 1405.68C660.291 1408.01 662.383 1410.98 663.676 1414.6C664.962 1418.27 665.252 1422.31 664.546 1426.73C663.841 1431.15 662.336 1434.89 660.032 1437.93C657.729 1440.98 654.845 1443.13 651.383 1444.4C647.86 1445.7 644.013 1446.03 639.842 1445.36C635.775 1444.72 632.319 1443.26 629.473 1441C626.627 1438.73 624.618 1435.91 623.448 1432.52C622.217 1429.18 621.913 1425.56 622.535 1421.66ZM629.65 1424.31C629.219 1427.02 629.449 1429.42 630.341 1431.54C631.225 1433.71 632.63 1435.45 634.558 1436.77C636.426 1438.13 638.611 1439.01 641.113 1439.41C644.711 1439.98 647.969 1439.32 650.889 1437.44C653.757 1435.55 655.697 1432.61 656.709 1428.61L629.65 1424.31Z" fill="#F04545"/>
<path d="M596.483 1400.61L575.109 1433.3L567.624 1431.58L593.965 1393.22L602.145 1395.1L608.984 1441.09L601.422 1439.35L596.483 1400.61Z" fill="#F04545"/>
<path d="M524.121 1399.39C524.53 1398.08 525.038 1396.72 525.645 1395.31L558.756 1405.62C559.778 1401.47 559.39 1397.84 557.594 1394.75C555.732 1391.69 552.986 1389.59 549.357 1388.46C546.384 1387.54 543.702 1387.45 541.312 1388.19C538.856 1388.97 536.863 1390.39 535.333 1392.45L527.925 1390.15C530.276 1386.52 533.508 1383.97 537.62 1382.49C541.717 1381.06 546.235 1381.12 551.174 1382.66C555.105 1383.88 558.357 1385.86 560.932 1388.59C563.455 1391.31 565.096 1394.55 565.853 1398.31C566.595 1402.13 566.297 1406.17 564.96 1410.44C563.624 1414.72 561.595 1418.2 558.875 1420.88C556.155 1423.56 552.991 1425.28 549.382 1426.03C545.707 1426.82 541.853 1426.58 537.822 1425.33C533.891 1424.11 530.681 1422.17 528.192 1419.52C525.702 1416.87 524.123 1413.79 523.454 1410.27C522.719 1406.78 522.941 1403.16 524.121 1399.39ZM530.779 1403.03C529.961 1405.65 529.84 1408.06 530.418 1410.28C530.979 1412.55 532.118 1414.48 533.835 1416.06C535.486 1417.68 537.521 1418.87 539.94 1419.62C543.418 1420.7 546.737 1420.52 549.899 1419.08C553.01 1417.62 555.355 1414.98 556.934 1411.17L530.779 1403.03Z" fill="#F04545"/>
<path d="M493.813 1426.64L513.158 1371.47L519.961 1373.85L500.616 1429.02L493.813 1426.64Z" fill="#F04545"/>
<path d="M479.47 1358.9C483.19 1360.54 486.2 1362.87 488.498 1365.89C490.748 1368.89 492.062 1372.32 492.438 1376.17C492.745 1380.04 491.994 1384.03 490.185 1388.12C488.396 1392.17 485.951 1395.35 482.85 1397.67C479.678 1400.02 476.209 1401.34 472.441 1401.64C468.653 1401.99 464.874 1401.34 461.106 1399.68C457.338 1398.03 454.304 1395.69 452.006 1392.66C449.686 1389.69 448.338 1386.28 447.961 1382.43C447.536 1378.56 448.229 1374.58 450.038 1370.48C451.848 1366.38 454.362 1363.17 457.582 1360.85C460.732 1358.55 464.226 1357.24 468.063 1356.91C471.9 1356.58 475.702 1357.25 479.47 1358.9ZM476.916 1364.69C474.548 1363.64 472.081 1363.22 469.514 1363.42C466.947 1363.61 464.546 1364.54 462.311 1366.21C460.027 1367.85 458.183 1370.26 456.778 1373.44C455.373 1376.62 454.808 1379.6 455.085 1382.36C455.362 1385.13 456.281 1387.49 457.841 1389.44C459.381 1391.44 461.334 1392.97 463.701 1394.01C466.117 1395.07 468.584 1395.49 471.103 1395.27C473.552 1395.08 475.87 1394.15 478.057 1392.46C480.244 1390.78 482.04 1388.34 483.445 1385.16C484.872 1381.93 485.495 1378.96 485.314 1376.23C485.086 1373.48 484.226 1371.12 482.735 1369.14C481.223 1367.21 479.283 1365.73 476.916 1364.69Z" fill="#F04545"/>
<path d="M424.873 1375.44C422.432 1376.93 419.591 1377.72 416.351 1377.82C413.039 1377.93 409.739 1377.09 406.45 1375.3C403.069 1373.45 400.455 1370.98 398.608 1367.87C396.716 1364.74 395.792 1361.26 395.839 1357.45C395.859 1353.68 396.934 1349.85 399.061 1345.97C401.164 1342.14 403.826 1339.15 407.047 1337.01C410.268 1334.86 413.724 1333.72 417.415 1333.57C421.06 1333.4 424.573 1334.23 427.955 1336.08C431.197 1337.84 433.676 1340.13 435.392 1342.92C437.037 1345.74 437.912 1348.59 438.019 1351.47L451.735 1326.45L458.057 1329.9L427.358 1385.89L421.036 1382.44L424.873 1375.44ZM405.523 1349.5C403.953 1352.36 403.164 1355.17 403.157 1357.93C403.15 1360.69 403.838 1363.16 405.222 1365.36C406.559 1367.53 408.409 1369.26 410.772 1370.54C413.088 1371.81 415.558 1372.4 418.183 1372.34C420.737 1372.29 423.211 1371.51 425.606 1369.99C427.929 1368.5 429.863 1366.34 431.408 1363.52C432.978 1360.66 433.78 1357.83 433.812 1355.02C433.773 1352.24 433.097 1349.74 431.785 1347.53C430.401 1345.33 428.551 1343.6 426.235 1342.34C423.873 1341.05 421.415 1340.43 418.862 1340.48C416.237 1340.55 413.763 1341.33 411.439 1342.82C409.091 1344.36 407.119 1346.59 405.523 1349.5Z" fill="#F04545"/>
<path d="M327.331 1329.44C324.592 1327.46 322.569 1325.13 321.263 1322.44C319.926 1319.79 319.456 1316.88 319.852 1313.73C320.248 1310.57 321.621 1307.37 323.969 1304.13L338.94 1283.44L344.719 1287.6L330.351 1307.45C327.817 1310.95 326.763 1314.25 327.189 1317.35C327.542 1320.46 329.195 1323.08 332.149 1325.21C335.188 1327.4 338.317 1328.16 341.537 1327.49C344.725 1326.86 347.648 1324.71 350.305 1321.04L364.303 1301.7L370.082 1305.86L355.713 1325.71C353.179 1329.21 352.126 1332.51 352.552 1335.61C352.905 1338.72 354.558 1341.34 357.512 1343.47C360.551 1345.66 363.68 1346.42 366.899 1345.75C370.088 1345.12 373.011 1342.97 375.668 1339.3L389.665 1319.96L395.509 1324.17L370.109 1359.26L364.266 1355.05L367.928 1349.99C365.443 1351 362.882 1351.3 360.245 1350.89C357.566 1350.46 355.049 1349.39 352.694 1347.7C349.741 1345.57 347.608 1343.03 346.298 1340.07C344.987 1337.11 344.702 1333.96 345.443 1330.59C342.666 1332.36 339.649 1333.11 336.391 1332.84C333.134 1332.58 330.114 1331.44 327.331 1329.44Z" fill="#F04545"/>
<path d="M279.699 1267.38C280.586 1266.34 281.583 1265.28 282.693 1264.22L309.182 1286.55C311.741 1283.12 312.796 1279.63 312.348 1276.09C311.826 1272.54 310.113 1269.55 307.21 1267.1C304.831 1265.09 302.396 1263.97 299.903 1263.73C297.336 1263.5 294.946 1264.03 292.733 1265.34L286.806 1260.34C290.386 1257.91 294.358 1256.81 298.723 1257.05C303.054 1257.32 307.195 1259.12 311.147 1262.45C314.291 1265.11 316.517 1268.19 317.824 1271.7C319.091 1275.19 319.339 1278.81 318.568 1282.57C317.764 1286.37 315.914 1289.98 313.016 1293.4C310.119 1296.82 306.895 1299.24 303.343 1300.66C299.791 1302.07 296.205 1302.43 292.587 1301.72C288.895 1301.02 285.436 1299.31 282.21 1296.59C279.065 1293.94 276.863 1290.91 275.603 1287.51C274.342 1284.1 274.09 1280.65 274.844 1277.15C275.525 1273.65 277.143 1270.4 279.699 1267.38ZM284.413 1273.32C282.641 1275.41 281.587 1277.59 281.254 1279.86C280.886 1282.17 281.184 1284.39 282.15 1286.51C283.04 1288.64 284.453 1290.52 286.389 1292.15C289.171 1294.5 292.299 1295.62 295.774 1295.52C299.209 1295.38 302.397 1293.86 305.338 1290.96L284.413 1273.32Z" fill="#F04545"/>
<path d="M238.39 1259.26C234.629 1255.56 232.714 1251.42 232.643 1246.84C232.536 1242.3 234.594 1237.89 238.819 1233.62L256.774 1215.45L261.85 1220.44L244.618 1237.88C241.579 1240.95 240.033 1244.05 239.982 1247.18C239.893 1250.35 241.183 1253.24 243.853 1255.87C246.56 1258.53 249.556 1259.81 252.84 1259.71C256.087 1259.57 259.304 1257.89 262.491 1254.67L279.334 1237.62L284.467 1242.67L254.005 1273.5L248.872 1268.45L253.208 1264.06C250.636 1264.64 248.059 1264.51 245.477 1263.67C242.858 1262.8 240.495 1261.33 238.39 1259.26Z" fill="#F04545"/>
<path d="M213.855 1225.71L232.713 1208.47C234.27 1207.05 235.076 1205.7 235.131 1204.44C235.148 1203.21 234.407 1201.78 232.909 1200.15L229.324 1196.25L233.82 1192.14L238.207 1196.92C240.917 1199.87 242.269 1202.7 242.262 1205.42C242.256 1208.14 240.695 1210.92 237.581 1213.77L218.723 1231.01L222.522 1235.14L218.143 1239.14L214.345 1235.01L206.288 1242.37L201.419 1237.07L209.476 1229.71L201.825 1221.38L206.204 1217.38L213.855 1225.71Z" fill="#F04545"/>
<path d="M190.563 1176.52C191.43 1177.58 191.795 1178.78 191.658 1180.11C191.522 1181.45 190.922 1182.55 189.857 1183.41C188.793 1184.28 187.593 1184.64 186.256 1184.5C184.919 1184.37 183.817 1183.77 182.95 1182.71C182.116 1181.69 181.784 1180.53 181.954 1179.24C182.091 1177.9 182.691 1176.81 183.755 1175.94C184.82 1175.08 186.02 1174.71 187.357 1174.85C188.661 1174.94 189.729 1175.5 190.563 1176.52Z" fill="#F04545"/>
<path d="M130.135 1123.59C133.992 1121.1 138.066 1120.35 142.357 1121.35C146.575 1122.33 150.433 1125.51 153.931 1130.91L159.693 1139.79L179.044 1127.31L182.957 1133.35L136.607 1163.24L126.932 1148.32C123.549 1143.1 122.247 1138.33 123.025 1134C123.775 1129.63 126.145 1126.16 130.135 1123.59ZM148.943 1134.12C146.764 1130.76 144.428 1128.76 141.933 1128.11C139.438 1127.46 136.838 1128.01 134.134 1129.75C128.415 1133.44 127.677 1138.56 131.919 1145.1L137.681 1153.99L154.705 1143.01L148.943 1134.12Z" fill="#F04545"/>
<path d="M97.1337 1077.48L135.286 1056.85L138.72 1063.17L133.081 1066.22C135.684 1066.37 138.134 1067.23 140.431 1068.8C142.655 1070.35 144.472 1072.43 145.881 1075.02C147.491 1077.98 148.334 1080.97 148.411 1083.98C148.44 1087.02 147.603 1089.9 145.898 1092.62C144.167 1095.29 141.538 1097.58 138.011 1099.49L115.663 1111.57L112.266 1105.32L133.779 1093.69C137.539 1091.66 139.924 1089.14 140.934 1086.14C141.899 1083.16 141.488 1080.03 139.702 1076.74C137.865 1073.36 135.374 1071.27 132.229 1070.45C129.084 1069.64 125.515 1070.31 121.524 1072.47L100.568 1083.79L97.1337 1077.48Z" fill="#F04545"/>
<path d="M92.0717 1053.38C89.1096 1053.06 86.3085 1051.92 83.6686 1049.97C81.0286 1048.02 78.9803 1045.37 77.5238 1042.04C75.9617 1038.47 75.4048 1034.9 75.853 1031.31C76.3013 1027.73 77.715 1024.44 80.0943 1021.45C82.4251 1018.48 85.623 1016.12 89.6877 1014.35C93.7041 1012.6 97.6437 1011.86 101.507 1012.14C105.37 1012.41 108.806 1013.61 111.814 1015.75C114.802 1017.84 117.066 1020.65 118.607 1024.17C120.106 1027.6 120.675 1030.94 120.315 1034.2C119.933 1037.41 118.866 1040.17 117.114 1042.48L124.445 1039.3L127.326 1045.88L73.6132 1069.25L70.7318 1062.66L92.0717 1053.38ZM92.6324 1021.08C89.6322 1022.39 87.2829 1024.13 85.5847 1026.3C83.8865 1028.48 82.9106 1030.85 82.657 1033.43C82.3822 1035.97 82.7831 1038.46 83.8597 1040.93C84.9151 1043.34 86.5014 1045.32 88.6189 1046.87C90.6668 1048.39 93.1024 1049.28 95.9255 1049.55C98.6792 1049.79 101.532 1049.26 104.484 1047.98C107.484 1046.67 109.857 1044.92 111.604 1042.73C113.281 1040.5 114.281 1038.12 114.604 1035.56C114.858 1032.98 114.457 1030.49 113.402 1028.07C112.325 1025.61 110.763 1023.62 108.715 1022.1C106.597 1020.55 104.162 1019.66 101.408 1019.42C98.6062 1019.2 95.681 1019.75 92.6324 1021.08Z" fill="#F04545"/>
<path d="M47.3289 1008.79L101.799 987.235L104.457 993.916L49.9865 1015.47L47.3289 1008.79Z" fill="#F04545"/>
<path d="M47.1283 986.13C47.5912 987.419 47.5354 988.669 46.9613 989.881C46.3871 991.093 45.4539 991.929 44.1616 992.391C42.8694 992.853 41.6157 992.797 40.4006 992.224C39.1855 991.652 38.3467 990.721 37.8838 989.432C37.4388 988.193 37.5122 986.992 38.1042 985.83C38.6784 984.618 39.6116 983.781 40.9038 983.32C42.196 982.858 43.4498 982.914 44.6648 983.486C45.8621 984.009 46.6833 984.89 47.1283 986.13ZM52.5885 980.488L93.4433 965.893L95.8733 972.659L55.0185 987.254L52.5885 980.488Z" fill="#F04545"/>
<path d="M83.5679 936.086C84.4743 939.277 84.7539 942.29 84.4065 945.125C84.0084 947.973 83.0528 950.405 81.5398 952.419C79.976 954.448 77.9457 955.898 75.4491 956.767L73.4206 949.624C75.4457 948.833 76.874 947.389 77.7055 945.294C78.5226 943.148 78.5283 940.656 77.7226 937.819C76.9745 935.185 75.8004 933.272 74.2005 932.083C72.6006 930.893 70.9118 930.549 69.1339 931.051C67.3053 931.568 66.1894 932.759 65.7862 934.624C65.3323 936.503 65.1556 939.262 65.256 942.9C65.3209 946.22 65.2276 948.983 64.9759 951.188C64.6591 953.357 63.8894 955.381 62.6668 957.258C61.379 959.1 59.389 960.401 56.6969 961.161C54.5635 961.764 52.428 961.683 50.2905 960.919C48.153 960.155 46.2453 958.751 44.5676 956.707C42.8391 954.678 41.5505 952.169 40.7016 949.18C39.3924 944.57 39.5032 940.516 41.0341 937.019C42.565 933.522 45.3334 931.098 49.3395 929.748L51.3034 936.663C49.1623 937.432 47.6617 938.814 46.8014 940.808C45.9267 942.751 45.8707 945.066 46.6333 947.751C47.3382 950.233 48.4326 952.058 49.9166 953.226C51.4005 954.394 53.006 954.734 54.733 954.246C56.1045 953.859 57.1251 953.105 57.7948 951.986C58.3993 950.83 58.7939 949.514 58.9786 948.039C59.0981 946.528 59.15 944.488 59.1341 941.921C59.098 938.702 59.2201 936.041 59.5005 933.937C59.7301 931.847 60.4452 929.921 61.6458 928.159C62.832 926.347 64.6879 925.056 67.2132 924.288C69.499 923.642 71.7361 923.694 73.9244 924.444C76.1127 925.194 78.0711 926.584 79.7996 928.613C81.4629 930.606 82.719 933.097 83.5679 936.086Z" fill="#F04545"/>
<path d="M25.5558 894.566C24.918 891.364 25.0411 888.334 25.9248 885.475C26.7567 882.626 28.4009 880.206 30.8572 878.216C33.3033 876.175 36.4941 874.764 40.4295 873.984L65.5177 869.013L66.9065 875.985L42.828 880.756C38.5819 881.598 35.5565 883.298 33.7516 885.856C31.895 888.425 31.3319 891.543 32.0623 895.21C32.803 898.928 34.5596 901.667 37.3322 903.426C40.0944 905.133 43.7022 905.546 48.1554 904.664L71.6901 900L73.0944 907.05L15.6168 918.439L14.2125 911.389L35.1841 907.234C32.7315 906.27 30.6679 904.693 28.9934 902.501C27.3086 900.258 26.1628 897.613 25.5558 894.566Z" fill="#F04545"/>
<path d="M12.6382 861.622C12.8643 862.973 12.587 864.193 11.8063 865.284C11.0255 866.375 9.95818 867.033 8.6043 867.259C7.25043 867.485 6.02663 867.208 4.93277 866.429C3.8389 865.651 3.179 864.586 2.95284 863.236C2.73538 861.938 3.02132 860.769 3.81075 859.73C4.59148 858.639 5.65863 857.981 7.0125 857.755C8.36638 857.529 9.59027 857.806 10.6841 858.585C11.7693 859.311 12.4207 860.324 12.6382 861.622ZM19.0157 857.036L61.8189 849.905L63.0062 856.994L20.2031 864.125L19.0157 857.036Z" fill="#F04545"/>
<path d="M11.9753 816.98C11.5077 811.736 12.7327 807.345 15.6505 803.809C18.5157 800.277 22.9457 798.246 28.9405 797.714L54.4185 795.454L55.0499 802.534L30.5974 804.703C26.2853 805.086 23.0945 806.452 21.0251 808.803C18.903 811.159 18.008 814.199 18.34 817.922C18.6768 821.699 20.1289 824.609 22.6963 826.655C25.2591 828.648 28.8017 829.443 33.3241 829.042L57.2245 826.922L57.8629 834.081L14.6371 837.916L13.9987 830.756L20.1513 830.211C17.8164 828.99 15.9366 827.228 14.512 824.922C13.0828 822.565 12.2372 819.917 11.9753 816.98Z" fill="#F04545"/>
<path d="M10.6565 764.63C10.6565 760.892 11.4748 757.627 13.1114 754.837C14.748 751.993 16.8069 749.887 19.2882 748.518L11.3692 748.518L11.3692 741.252L55.7159 741.252C59.6754 741.252 63.1862 742.094 66.2482 743.779C69.363 745.464 71.7916 747.886 73.5338 751.046C75.276 754.152 76.147 757.785 76.147 761.945C76.147 767.632 74.8008 772.371 72.1083 776.162C69.4158 779.953 65.7467 782.191 61.1008 782.875L61.1008 775.767C63.7405 774.977 65.8523 773.345 67.4361 770.87C69.0727 768.395 69.8909 765.42 69.8909 761.945C69.8909 757.996 68.6503 754.784 66.169 752.309C63.6877 749.782 60.2033 748.518 55.7159 748.518L46.609 748.518C49.143 749.94 51.2548 752.046 52.9442 754.837C54.6336 757.627 55.4783 760.892 55.4783 764.63C55.4783 768.474 54.528 771.976 52.6274 775.135C50.7268 778.241 48.0608 780.69 44.6292 782.48C41.1976 784.27 37.2909 785.166 32.909 785.166C28.4743 785.166 24.5941 784.27 21.2681 782.48C17.8893 780.69 15.2759 778.241 13.4281 775.135C11.5803 771.976 10.6565 768.474 10.6565 764.63ZM32.9882 748.518C29.715 748.518 26.8642 749.176 24.4357 750.493C22.0072 751.809 20.1594 753.599 18.8924 755.863C17.5725 758.075 16.9125 760.523 16.9125 763.209C16.9125 765.894 17.546 768.342 18.8131 770.554C20.0801 772.765 21.9279 774.529 24.3564 775.846C26.7849 777.162 29.6358 777.82 32.909 777.82C36.235 777.82 39.1386 777.162 41.6199 775.846C44.0485 774.529 45.9226 772.765 47.2424 770.554C48.5095 768.342 49.1431 765.894 49.1431 763.209C49.1431 760.523 48.5095 758.075 47.2424 755.863C45.9226 753.599 44.0485 751.809 41.6199 750.493C39.1386 749.176 36.2614 748.518 32.9882 748.518Z" fill="#F04545"/>
<path d="M30.0807 696.666C30.0013 698.033 29.4597 699.162 28.4561 700.053C27.4524 700.945 26.2654 701.351 24.895 701.271C23.5247 701.192 22.3928 700.652 21.499 699.651C20.6053 698.65 20.1981 697.466 20.2775 696.1C20.3538 694.785 20.8923 693.709 21.8929 692.87C22.8966 691.979 24.0836 691.573 25.4539 691.652C26.8243 691.731 27.9564 692.271 28.8501 693.272C29.7469 694.221 30.157 695.352 30.0807 696.666Z" fill="#F04545"/>
<path d="M0.997527 646.256L55.7477 653.237L54.8337 660.366L0.0836612 653.385L0.997527 646.256Z" fill="#F04545"/>
<path d="M17.4055 607.387C18.4738 602.231 20.9159 598.379 24.732 595.832C28.4965 593.274 33.3257 592.602 39.2197 593.817L64.2691 598.979L62.827 605.94L38.7857 600.986C34.5462 600.112 31.0958 600.504 28.4346 602.16C25.7218 603.805 23.9862 606.458 23.2277 610.119C22.4586 613.832 23.0076 617.037 24.8748 619.733C26.7527 622.379 29.9149 624.159 34.3612 625.076L57.8596 629.918L56.4013 636.957L13.9027 628.199L15.3608 621.16L21.4099 622.407C19.5269 620.567 18.2365 618.339 17.5388 615.722C16.8517 613.053 16.8073 610.275 17.4055 607.387Z" fill="#F04545"/>
<path d="M32.2714 568.819L57.034 575.21C59.0784 575.738 60.6475 575.681 61.7413 575.038C62.7839 574.383 63.5829 572.985 64.1385 570.844L65.4679 565.721L71.371 567.245L69.744 573.515C68.7387 577.389 67.0904 580.063 64.7989 581.539C62.5074 583.014 59.3173 583.224 55.2285 582.168L30.4659 575.777L29.0571 581.205L23.3072 579.721L24.716 574.292L14.1362 571.562L15.9418 564.603L26.5215 567.334L29.3589 556.4L35.1087 557.884L32.2714 568.819Z" fill="#F04545"/>
<path d="M64.4541 507.936C65.7532 508.378 67.1016 508.92 68.4994 509.563L57.2962 542.303C61.4285 543.431 65.0701 543.141 68.2211 541.431C71.3391 539.655 73.512 536.973 74.7398 533.385C75.7458 530.445 75.9068 527.774 75.2228 525.371C74.5059 522.902 73.1347 520.877 71.1092 519.298L73.6159 511.972C77.1879 514.412 79.6603 517.702 81.0331 521.841C82.3558 525.963 82.1817 530.466 80.5106 535.35C79.1805 539.237 77.1125 542.427 74.3065 544.922C71.5176 547.366 68.2259 548.916 64.4314 549.572C60.5869 550.21 56.5412 549.807 52.2943 548.361C48.0473 546.916 44.6149 544.802 41.997 542.019C39.379 539.236 37.7408 536.036 37.0822 532.418C36.3907 528.733 36.727 524.897 38.0912 520.911C39.4213 517.024 41.4473 513.874 44.1692 511.463C46.8911 509.051 50.0238 507.558 53.5673 506.984C57.0779 506.343 60.7068 506.66 64.4541 507.936ZM60.6258 514.477C58.0277 513.593 55.6081 513.409 53.3673 513.926C51.0764 514.426 49.1153 515.511 47.4839 517.181C45.8196 518.784 44.5782 520.782 43.7597 523.174C42.5831 526.612 42.6762 529.927 44.0391 533.117C45.419 536.257 47.9978 538.665 51.7757 540.34L60.6258 514.477Z" fill="#F04545"/>
<path d="M58.9123 483.926C57.081 481.832 55.9609 479.455 55.5517 476.795C55.1621 474.087 55.5961 471.168 56.854 468.041L63.7628 470.805L63.0553 472.564C60.0483 480.041 62.6117 485.406 70.7456 488.66L92.6483 497.422L89.9655 504.093L49.6883 487.98L52.371 481.31L58.9123 483.926Z" fill="#F04545"/>
<path d="M80.6031 463.722C76.6435 461.73 73.583 459.188 71.4215 456.096C69.213 452.98 67.985 449.62 67.7378 446.017C67.5144 442.366 68.2705 438.825 70.006 435.393C71.7176 432.008 73.934 429.437 76.6553 427.68C79.3766 425.923 82.154 424.991 84.9876 424.883L77.9169 421.327L81.1976 414.839L119.945 434.329L116.664 440.817L109.452 437.189C111.073 439.596 111.996 442.449 112.22 445.746C112.422 448.973 111.678 452.255 109.991 455.593C108.255 459.025 105.838 461.702 102.738 463.622C99.6383 465.542 96.1524 466.531 92.2801 466.588C88.4079 466.645 84.5155 465.69 80.6031 463.722ZM97.22 431.036C94.2975 429.566 91.4547 428.873 88.692 428.958C85.9293 429.043 83.4713 429.811 81.3177 431.264C79.1408 432.646 77.4461 434.535 76.2337 436.933C75.0212 439.331 74.4814 441.801 74.6143 444.345C74.7471 446.889 75.6006 449.293 77.1746 451.559C78.7486 453.826 80.9968 455.694 83.9194 457.164C86.8891 458.657 89.7789 459.374 92.5887 459.313C95.3514 459.228 97.8212 458.495 99.9981 457.113C102.128 455.708 103.799 453.806 105.012 451.408C106.224 449.011 106.764 446.54 106.631 443.996C106.475 441.382 105.609 438.942 104.035 436.676C102.414 434.386 100.143 432.506 97.22 431.036Z" fill="#F04545"/>
<path d="M105.943 410.36C102.105 408.041 99.2282 405.257 97.3134 402.007C95.3534 398.73 94.4038 395.263 94.4644 391.606C94.5525 387.904 95.6632 384.297 97.7967 380.784C100.559 376.235 103.936 373.165 107.926 371.575C111.944 369.939 116.205 369.835 120.707 371.263L116.687 377.883C114.046 377.149 111.51 377.31 109.079 378.366C106.676 379.376 104.653 381.232 103.012 383.934C100.879 387.447 100.375 391.021 101.5 394.656C102.58 398.264 105.333 401.404 109.759 404.078C114.229 406.778 118.34 407.784 122.091 407.096C125.842 406.407 128.785 404.306 130.918 400.793C132.559 398.091 133.295 395.458 133.125 392.892C132.954 390.327 131.9 387.997 129.962 385.903L133.983 379.283C137.175 382.565 139.019 386.388 139.517 390.752C139.969 395.088 138.842 399.486 136.134 403.944C134 407.457 131.309 410.11 128.06 411.902C124.839 413.65 121.318 414.416 117.498 414.201C113.678 413.987 109.826 412.706 105.943 410.36Z" fill="#F04545"/>
<path d="M126.129 346.888L147.298 361.208C149.046 362.39 150.543 362.862 151.789 362.623C152.992 362.356 154.216 361.306 155.461 359.476L158.439 355.097L163.485 358.511L159.84 363.87C157.588 367.182 155.134 369.149 152.479 369.77C149.824 370.392 146.748 369.52 143.253 367.156L122.084 352.836L118.928 357.477L114.013 354.152L117.169 349.511L108.125 343.393L112.17 337.445L121.214 343.563L127.571 334.215L132.486 337.541L126.129 346.888Z" fill="#F04545"/>
<path d="M132.637 314.237C131.829 315.344 130.762 316.002 129.434 316.211C128.107 316.42 126.888 316.121 125.778 315.316C124.668 314.511 124.008 313.446 123.799 312.122C123.589 310.798 123.888 309.583 124.696 308.476C125.472 307.411 126.508 306.796 127.805 306.629C129.132 306.42 130.351 306.719 131.461 307.524C132.571 308.329 133.231 309.394 133.44 310.718C133.681 311.999 133.413 313.172 132.637 314.237ZM140.386 315.561L175.48 341.022L171.24 346.834L136.147 321.374L140.386 315.561Z" fill="#F04545"/>
<path d="M196.759 313.116C194.123 316.203 191.024 318.412 187.461 319.742C183.932 321.033 180.265 321.307 176.46 320.566C172.65 319.75 169.036 317.891 165.62 314.989C162.244 312.121 159.885 308.873 158.545 305.245C157.199 301.543 156.921 297.849 157.711 294.163C158.461 290.442 160.17 287.019 162.84 283.892C165.51 280.765 168.627 278.536 172.19 277.206C175.713 275.841 179.377 275.529 183.181 276.271C187.02 276.973 190.648 278.774 194.064 281.676C197.481 284.578 199.845 287.9 201.157 291.642C202.463 295.311 202.724 299.025 201.94 302.785C201.156 306.546 199.429 309.989 196.759 313.116ZM191.936 309.02C193.613 307.055 194.726 304.819 195.273 302.31C195.82 299.801 195.615 297.24 194.656 294.627C193.731 291.975 191.942 289.522 189.289 287.268C186.637 285.015 183.941 283.625 181.202 283.096C178.463 282.568 175.933 282.771 173.611 283.703C171.249 284.602 169.229 286.033 167.552 287.997C165.84 290.002 164.728 292.238 164.215 294.707C163.696 297.102 163.933 299.585 164.926 302.158C165.919 304.731 167.742 307.143 170.395 309.397C173.088 311.684 175.769 313.132 178.44 313.74C181.144 314.308 183.661 314.163 185.989 313.305C188.276 312.412 190.259 310.984 191.936 309.02Z" fill="#F04545"/>
<path d="M200.003 240.732C203.723 236.995 207.878 235.1 212.47 235.046C217.024 234.955 221.436 237.024 225.707 241.253L243.86 259.226L238.838 264.271L221.417 247.021C218.344 243.979 215.24 242.426 212.104 242.363C208.931 242.263 206.024 243.54 203.383 246.193C200.705 248.883 199.409 251.866 199.496 255.143C199.619 258.381 201.292 261.596 204.514 264.786L221.543 281.647L216.466 286.747L185.669 256.254L190.746 251.153L195.129 255.493C194.56 252.926 194.7 250.357 195.549 247.785C196.436 245.175 197.92 242.824 200.003 240.732Z" fill="#F04545"/>
<path d="M256.075 216.715C255.052 217.628 253.87 218.049 252.529 217.976C251.187 217.903 250.057 217.357 249.141 216.337C248.225 215.318 247.803 214.139 247.877 212.801C247.95 211.462 248.498 210.336 249.52 209.422C250.502 208.544 251.645 208.158 252.947 208.267C254.289 208.34 255.419 208.886 256.335 209.905C257.251 210.924 257.673 212.103 257.599 213.442C257.566 214.745 257.057 215.836 256.075 216.715Z" fill="#F04545"/>
<path d="M317.866 178.293L298.193 192.132L301.644 204.685L295.432 209.055L280.109 152.856L286.904 148.076L334.778 181.378L328.565 185.748L317.866 178.293ZM312.806 174.701L288.586 157.717L296.498 186.172L312.806 174.701Z" fill="#F04545"/>
<path d="M340.071 124.172C344.606 121.478 349.104 120.674 353.564 121.763C357.997 122.807 361.754 125.907 364.834 131.064L377.925 152.98L371.802 156.618L359.238 135.584C357.023 131.874 354.404 129.599 351.383 128.759C348.334 127.874 345.2 128.388 341.98 130.301C338.714 132.241 336.714 134.808 335.98 138.003C335.291 141.17 336.108 144.699 338.432 148.589L350.712 169.149L344.521 172.827L322.311 135.644L328.502 131.965L331.663 137.258C331.753 134.63 332.53 132.176 333.995 129.896C335.506 127.589 337.531 125.681 340.071 124.172Z" fill="#F04545"/>
<path d="M367.102 100.853C365.901 101.514 364.654 101.659 363.363 101.287C362.072 100.915 361.095 100.129 360.432 98.9307C359.769 97.732 359.624 96.4888 359.997 95.2011C360.37 93.9134 361.158 92.939 362.359 92.2777C363.515 91.6419 364.715 91.5227 365.96 91.9203C367.251 92.2924 368.228 93.0778 368.891 94.2765C369.554 95.4752 369.699 96.7184 369.326 98.0061C368.999 99.2683 368.258 100.217 367.102 100.853ZM373.558 105.33L394.519 143.228L388.209 146.699L367.248 108.801L373.558 105.33Z" fill="#F04545"/>
<path d="M440.478 70.607C443.623 69.3759 446.685 68.9412 449.663 69.3029C452.622 69.6155 455.325 70.7918 457.772 72.8318C460.219 74.8718 462.176 77.7544 463.641 81.4795L472.985 105.227L466.351 107.824L457.383 85.0321C455.802 81.0128 453.589 78.3437 450.744 77.0247C447.93 75.6374 444.827 75.6074 441.436 76.9346C437.947 78.3003 435.614 80.5144 434.437 83.577C433.241 86.5905 433.472 90.205 435.131 94.4203L443.867 116.624L437.233 119.221L428.265 96.4288C426.683 92.4096 424.47 89.7405 421.626 88.4214C418.812 87.0342 415.709 87.0041 412.318 88.3314C408.829 89.697 406.496 91.9112 405.319 94.9738C404.123 97.9873 404.354 101.602 406.012 105.817L414.749 128.021L408.041 130.646L392.187 90.356L398.896 87.7304L401.181 93.5387C401.679 90.9117 402.812 88.6018 404.58 86.6088C406.397 84.5967 408.657 83.0616 411.36 82.0037C414.751 80.6765 418.047 80.2629 421.25 80.7629C424.452 81.2629 427.271 82.7333 429.706 85.1741C429.718 81.8888 430.717 78.9522 432.705 76.3643C434.692 73.7763 437.284 71.8572 440.478 70.607Z" fill="#F04545"/>
<path d="M477.208 78.0453C475.935 73.8085 475.681 69.8443 476.445 66.1528C477.195 62.4109 478.796 59.2113 481.25 56.5542C483.753 53.882 486.851 51.9942 490.543 50.8908C494.184 49.8026 497.58 49.6397 500.73 50.4022C503.88 51.1647 506.469 52.5348 508.496 54.5124L506.223 46.9466L513.202 44.8608L525.659 86.3211L518.68 88.4069L516.361 80.6899C515.723 83.519 514.281 86.1487 512.035 88.5789C509.825 90.9436 506.924 92.6625 503.334 93.7356C499.642 94.839 496.031 94.9287 492.502 94.0047C488.973 93.0806 485.856 91.2364 483.151 88.4718C480.447 85.7072 478.466 82.2317 477.208 78.0453ZM512.429 67.6011C511.489 64.4739 510.038 61.9392 508.077 59.9969C506.116 58.0546 503.866 56.8032 501.327 56.2426C498.825 55.6165 496.284 55.6888 493.704 56.4597C491.125 57.2305 488.955 58.5386 487.195 60.384C485.435 62.2293 484.271 64.501 483.704 67.199C483.137 69.897 483.323 72.8096 484.263 75.9368C485.217 79.1144 486.683 81.6996 488.66 83.6923C490.621 85.6346 492.853 86.9188 495.356 87.545C497.844 88.1207 500.377 88.0231 502.956 87.2522C505.535 86.4814 507.705 85.1733 509.466 83.328C511.261 81.4171 512.443 79.1126 513.01 76.4146C513.562 73.6661 513.368 70.7283 512.429 67.6011Z" fill="#F04545"/>
<path d="M541.135 42.6943L547.167 67.4859C547.665 69.5326 548.456 70.8854 549.539 71.5442C550.611 72.1519 552.224 72.195 554.379 71.6735L559.535 70.4256L560.973 76.3357L554.662 77.8629C550.763 78.8065 547.621 78.6188 545.236 77.2997C542.85 75.9806 541.16 73.2742 540.164 69.1807L534.132 44.3891L528.668 45.7114L527.268 39.9548L532.732 38.6325L530.155 28.0404L537.158 26.3456L539.735 36.9377L550.74 34.2744L552.14 40.031L541.135 42.6943Z" fill="#F04545"/>
<path d="M568.205 22.805C566.861 23.082 565.628 22.8523 564.505 22.1159C563.382 21.3795 562.681 20.341 562.404 19.0003C562.126 17.6596 562.356 16.4293 563.095 15.3093C563.833 14.1894 564.874 13.4909 566.218 13.2139C567.511 12.9475 568.693 13.1879 569.764 13.9349C570.887 14.6713 571.587 15.7099 571.865 17.0506C572.143 18.3913 571.912 19.6216 571.174 20.7415C570.487 21.8508 569.498 22.5387 568.205 22.805ZM573.044 28.9858L581.825 71.3723L574.768 72.8266L565.986 30.4401L573.044 28.9858Z" fill="#F04545"/>
<path d="M616.32 64.995C612.287 65.5092 608.504 65.0626 604.971 63.6552C601.49 62.2412 598.592 59.9831 596.279 56.8808C594.011 53.7196 592.592 49.9193 592.023 45.4798C591.461 41.0925 591.908 37.1074 593.365 33.5243C594.867 29.8824 597.154 26.9631 600.226 24.7667C603.29 22.518 606.865 21.1332 610.95 20.6124C615.034 20.0915 618.843 20.5348 622.377 21.9421C625.904 23.2972 628.824 25.5259 631.138 28.6282C633.504 31.7238 634.971 35.4914 635.54 39.9309C636.109 44.3703 635.617 48.4144 634.062 52.063C632.553 55.6528 630.24 58.5753 627.122 60.8307C624.005 63.0861 620.404 64.4742 616.32 64.995ZM615.516 58.7275C618.082 58.4003 620.414 57.4925 622.512 56.0041C624.61 54.5157 626.185 52.4834 627.239 49.9073C628.345 47.3245 628.677 44.3095 628.235 40.8624C627.793 37.4152 626.738 34.5772 625.068 32.3483C623.398 30.1193 621.39 28.5706 619.044 27.702C616.69 26.7812 614.23 26.4844 611.664 26.8115C609.046 27.1454 606.714 28.0532 604.669 29.5349C602.669 30.9577 601.169 32.9539 600.167 35.5234C599.166 38.0928 598.886 41.1011 599.328 44.5483C599.777 48.0476 600.784 50.9184 602.348 53.1607C603.965 55.3963 605.925 56.9779 608.226 57.9054C610.52 58.7807 612.95 59.0547 615.516 58.7275Z" fill="#F04545"/>
<path d="M665.513 13.7983C670.784 13.514 675.141 14.8873 678.584 17.9182C682.023 20.8966 683.905 25.3827 684.23 31.3766L685.611 56.8504L678.495 57.2342L677.169 32.7856C676.935 28.4743 675.677 25.2465 673.393 23.1022C671.106 20.9054 668.091 19.9079 664.348 20.1097C660.552 20.3144 657.585 21.6609 655.447 24.1491C653.361 26.6345 652.441 30.138 652.686 34.6597L653.981 58.5562L646.786 58.9443L644.443 15.7256L651.638 15.3375L651.972 21.4891C653.275 19.204 655.107 17.3915 657.466 16.0514C659.878 14.7085 662.561 13.9575 665.513 13.7983Z" fill="#F04545"/>
<path d="M728.458 33.4544C727.085 33.4386 725.93 32.9513 724.99 31.9926C724.051 31.0339 723.589 29.8701 723.605 28.5012C723.621 27.1323 724.11 25.9794 725.071 25.0427C726.032 24.106 727.199 23.6455 728.572 23.6614C729.891 23.6766 730.994 24.1633 731.881 25.1214C732.82 26.08 733.282 27.2438 733.266 28.6128C733.25 29.9817 732.761 31.1345 731.8 32.0713C730.892 33.0086 729.778 33.4697 728.458 33.4544Z" fill="#F04545"/>
<path d="M789.036 2.18396C795.006 2.94519 800.021 4.72584 804.079 7.52591C808.197 10.2804 811.143 13.8677 812.919 18.2876C814.746 22.7142 815.302 27.7217 814.585 33.3102C813.869 38.8988 812.068 43.6058 809.183 47.4314C806.356 51.2115 802.603 53.9179 797.923 55.5506C793.302 57.1378 788.007 57.5508 782.037 56.7896L764.991 54.6161L771.991 0.0104681L789.036 2.18396ZM782.79 50.9138C789.86 51.8152 795.491 50.6489 799.685 47.4147C803.885 44.1283 806.417 39.1163 807.28 32.3787C808.151 25.5889 806.945 20.0473 803.663 15.7538C800.434 11.467 795.311 8.87617 788.293 7.9814L778.396 6.71937L772.893 49.6518L782.79 50.9138Z" fill="#F04545"/>
<path d="M865.561 45.5816C865.283 46.9223 864.912 48.3244 864.447 49.7878L830.479 42.7879C829.872 47.0179 830.616 50.5853 832.71 53.49C834.866 56.3538 837.805 58.1693 841.527 58.9364C844.578 59.565 847.255 59.3909 849.56 58.4142C851.927 57.3965 853.77 55.787 855.089 53.5854L862.689 55.1516C860.708 58.9909 857.744 61.848 853.797 63.7231C849.862 65.5466 845.36 65.9363 840.294 64.8922C836.261 64.0611 832.829 62.4129 829.997 59.9476C827.217 57.4929 825.264 54.429 824.138 50.7559C823.023 47.0313 822.92 42.9775 823.828 38.5944C824.736 34.2114 826.41 30.5509 828.852 27.613C831.294 24.6751 834.273 22.6545 837.79 21.5512C841.369 20.407 845.227 20.261 849.363 21.1134C853.396 21.9444 856.782 23.5562 859.52 25.9487C862.259 28.3411 864.135 31.2548 865.149 34.6896C866.225 38.0836 866.362 41.7142 865.561 45.5816ZM858.576 42.6097C859.131 39.9284 859.012 37.5112 858.218 35.3582C857.435 33.1537 856.111 31.3485 854.246 29.9426C852.443 28.4958 850.301 27.5166 847.819 27.0052C844.252 26.2701 840.966 26.7759 837.963 28.5227C835.011 30.2802 832.938 33.1326 831.742 37.0801L858.576 42.6097Z" fill="#F04545"/>
<path d="M887.508 74.5383C884.305 73.6464 881.581 72.314 879.336 70.5411C877.106 68.7175 875.523 66.6369 874.588 64.2991C873.667 61.9107 873.485 59.4273 874.042 56.8491L881.212 58.8452C880.834 60.9812 881.324 62.9492 882.684 64.7491C884.095 66.5632 886.224 67.8667 889.071 68.6595C891.716 69.3956 893.964 69.3929 895.816 68.6511C897.668 67.9094 898.842 66.651 899.339 64.876C899.85 63.0502 899.412 61.4797 898.027 60.1645C896.655 58.7986 894.386 57.2103 891.221 55.3996C888.346 53.7246 886.031 52.2053 884.274 50.8417C882.584 49.4416 881.253 47.7319 880.284 45.7126C879.379 43.6567 879.303 41.2848 880.055 38.5969C880.652 36.4669 881.834 34.6913 883.602 33.2702C885.37 31.8491 887.565 30.957 890.188 30.5939C892.825 30.1801 895.644 30.3909 898.644 31.2262C903.272 32.5145 906.683 34.7215 908.877 37.8472C911.072 40.9729 911.703 44.5927 910.771 48.7065L903.83 46.7741C904.288 44.5508 903.888 42.5534 902.629 40.7818C901.422 39.0243 899.471 37.7704 896.776 37.0201C894.284 36.3264 892.152 36.3067 890.379 36.9612C888.607 37.6157 887.479 38.8051 886.996 40.5294C886.613 41.8987 886.726 43.1601 887.335 44.3137C888.009 45.4307 888.929 46.4521 890.095 47.3781C891.326 48.2675 893.044 49.3745 895.249 50.6992C898.022 52.346 900.236 53.837 901.89 55.1722C903.559 56.4568 904.834 58.0692 905.716 60.0094C906.649 61.9639 906.786 64.216 906.127 66.766C905.488 69.0481 904.278 70.9252 902.496 72.397C900.713 73.8688 898.504 74.8116 895.867 75.2254C893.294 75.6026 890.508 75.3736 887.508 74.5383Z" fill="#F04545"/>
<path d="M935.468 34.8831C934.159 34.4703 933.195 33.6692 932.575 32.4798C931.956 31.2903 931.853 30.043 932.267 28.7377C932.681 27.4324 933.484 26.4708 934.676 25.8528C935.869 25.2349 937.12 25.1323 938.428 25.5451C939.687 25.942 940.601 26.7272 941.17 27.9008C941.789 29.0902 941.892 30.3376 941.478 31.6429C941.064 32.9482 940.261 33.9098 939.069 34.5277C937.926 35.1615 936.726 35.2799 935.468 34.8831ZM936.665 42.6331L923.581 83.9008L916.71 81.7338L929.794 40.4661L936.665 42.6331Z" fill="#F04545"/>
<path d="M973.934 53.464C977.397 54.8946 980.108 56.8978 982.067 59.4738C984.074 62.0698 985.237 64.773 985.556 67.5833L988.586 60.2863L995.317 63.0668L978.348 103.93C976.833 107.579 974.709 110.491 971.976 112.668C969.223 114.893 966.05 116.204 962.457 116.601C958.913 117.017 955.214 116.43 951.361 114.838C946.093 112.662 942.218 109.608 939.737 105.676C937.255 101.745 936.586 97.5074 937.73 92.9645L944.315 95.6846C944.036 98.4191 944.74 100.99 946.427 103.396C948.093 105.851 950.536 107.743 953.755 109.073C957.413 110.584 960.863 110.67 964.105 109.331C967.396 108.012 969.899 105.285 971.617 101.15L975.102 92.758C972.815 94.549 970.056 95.6889 966.824 96.1778C963.593 96.6666 960.245 96.1957 956.782 94.7651C953.222 93.2943 950.342 91.0788 948.142 88.1186C945.992 85.1785 944.744 81.7849 944.399 77.9378C944.054 74.0907 944.719 70.1484 946.396 66.1107C948.093 62.0243 950.407 58.7913 953.338 56.4117C956.29 53.9833 959.558 52.5122 963.142 51.9983C966.776 51.5046 970.373 51.9932 973.934 53.464ZM980.314 80.2071C981.566 77.191 982.047 74.3122 981.757 71.5708C981.467 68.8293 980.516 66.4416 978.903 64.4077C977.36 62.3453 975.344 60.8003 972.857 59.7727C970.369 58.7451 967.859 58.392 965.325 58.7132C962.792 59.0345 960.451 60.0622 958.302 61.7962C956.153 63.5302 954.453 65.9053 953.2 68.9214C951.928 71.9862 951.426 74.9136 951.696 77.7037C951.986 80.4452 952.903 82.8471 954.447 84.9095C956.01 86.9233 958.036 88.444 960.523 89.4715C963.011 90.4991 965.521 90.8523 968.055 90.531C970.657 90.1812 973.033 89.1393 975.181 87.4053C977.35 85.6226 979.061 83.2232 980.314 80.2071Z" fill="#F04545"/>
<path d="M1034.24 78.6626C1038.95 81.051 1042.03 84.4169 1043.48 88.7602C1044.96 93.0566 1044.34 97.8795 1041.61 103.229L1030.01 125.964L1023.65 122.74L1034.79 100.92C1036.75 97.0717 1037.29 93.6493 1036.39 90.6522C1035.51 87.6082 1033.4 85.2383 1030.06 83.5425C1026.67 81.8228 1023.43 81.5053 1020.33 82.5899C1017.28 83.6984 1014.72 86.2705 1012.66 90.306L1001.78 111.634L995.353 108.373L1015.04 69.8007L1021.46 73.0609L1018.66 78.5512C1020.93 77.2252 1023.43 76.5719 1026.15 76.5913C1028.91 76.6346 1031.61 77.325 1034.24 78.6626Z" fill="#F04545"/>
<path d="M1074.17 124.463C1072.99 123.771 1072.23 122.777 1071.89 121.48C1071.55 120.183 1071.73 118.944 1072.42 117.763C1073.11 116.581 1074.11 115.821 1075.41 115.483C1076.71 115.144 1077.95 115.321 1079.14 116.013C1080.28 116.678 1080.99 117.646 1081.29 118.916C1081.63 120.213 1081.45 121.452 1080.76 122.633C1080.06 123.814 1079.06 124.574 1077.76 124.913C1076.51 125.278 1075.31 125.128 1074.17 124.463Z" fill="#F04545"/>
<path d="M1134.52 121.316L1113.46 149.104C1110.5 153.011 1109.25 156.624 1109.72 159.943C1110.22 163.293 1112.18 166.254 1115.59 168.826C1118.96 171.365 1122.31 172.404 1125.64 171.942C1129.01 171.512 1132.17 169.344 1135.13 165.437L1156.19 137.649L1161.94 141.982L1140.93 169.708C1138.16 173.362 1135.08 175.894 1131.7 177.304C1128.35 178.671 1124.95 179.011 1121.5 178.325C1118.09 177.67 1114.83 176.168 1111.71 173.819C1108.59 171.47 1106.23 168.734 1104.63 165.611C1103.07 162.519 1102.49 159.179 1102.89 155.59C1103.37 151.99 1104.99 148.362 1107.76 144.708L1128.77 116.982L1134.52 121.316Z" fill="#F04545"/>
<path d="M1154.56 206.294C1152.05 204.116 1150.17 201.746 1148.91 199.183C1147.68 196.58 1147.14 194.023 1147.31 191.512C1147.5 188.96 1148.41 186.64 1150.02 184.55L1155.64 189.425C1154.38 191.192 1153.97 193.179 1154.42 195.387C1154.92 197.63 1156.28 199.719 1158.51 201.656C1160.58 203.453 1162.61 204.414 1164.6 204.538C1166.59 204.662 1168.19 204.029 1169.41 202.639C1170.66 201.209 1170.94 199.604 1170.25 197.822C1169.6 196.001 1168.24 193.595 1166.16 190.603C1164.29 187.859 1162.85 185.494 1161.85 183.511C1160.93 181.522 1160.46 179.408 1160.46 177.169C1160.53 174.925 1161.48 172.75 1163.32 170.646C1164.77 168.978 1166.6 167.881 1168.81 167.355C1171.02 166.83 1173.39 166.965 1175.91 167.761C1178.47 168.518 1180.93 169.916 1183.28 171.956C1186.9 175.102 1189.03 178.557 1189.67 182.32C1190.3 186.083 1189.31 189.622 1186.7 192.937L1181.26 188.218C1182.63 186.406 1183.13 184.431 1182.76 182.292C1182.43 180.188 1181.2 178.22 1179.09 176.387C1177.14 174.693 1175.23 173.762 1173.34 173.593C1171.46 173.424 1169.93 174.015 1168.75 175.365C1167.82 176.437 1167.37 177.625 1167.43 178.927C1167.55 180.225 1167.94 181.541 1168.6 182.877C1169.33 184.208 1170.4 185.944 1171.82 188.085C1173.62 190.76 1174.97 193.055 1175.89 194.97C1176.85 196.845 1177.3 198.847 1177.26 200.977C1177.26 203.142 1176.42 205.234 1174.72 207.255C1173.16 209.042 1171.26 210.218 1169.02 210.783C1166.78 211.348 1164.37 211.253 1161.81 210.496C1159.33 209.735 1156.91 208.334 1154.56 206.294Z" fill="#F04545"/>
<path d="M1220.95 233.912C1219.97 234.876 1218.89 235.84 1217.69 236.804L1193.25 212.254C1190.4 215.445 1189.05 218.829 1189.18 222.403C1189.39 225.979 1190.84 229.111 1193.52 231.802C1195.71 234.006 1198.04 235.337 1200.5 235.792C1203.04 236.248 1205.47 235.922 1207.78 234.813L1213.25 240.306C1209.47 242.415 1205.42 243.164 1201.09 242.552C1196.8 241.904 1192.83 239.748 1189.19 236.086C1186.29 233.172 1184.34 229.907 1183.35 226.292C1182.39 222.714 1182.46 219.084 1183.55 215.402C1184.69 211.683 1186.85 208.247 1190.03 205.093C1193.21 201.94 1196.64 199.812 1200.3 198.708C1203.96 197.604 1207.57 197.562 1211.11 198.58C1214.73 199.598 1218.02 201.602 1221 204.591C1223.9 207.506 1225.83 210.715 1226.79 214.218C1227.74 217.722 1227.69 221.184 1226.64 224.606C1225.65 228.027 1223.76 231.129 1220.95 233.912ZM1216.77 227.586C1218.72 225.657 1219.96 223.576 1220.49 221.344C1221.06 219.075 1220.95 216.841 1220.18 214.641C1219.48 212.442 1218.23 210.445 1216.45 208.652C1213.88 206.073 1210.86 204.685 1207.39 204.486C1203.96 204.325 1200.65 205.56 1197.47 208.192L1216.77 227.586Z" fill="#F04545"/>
<path d="M1245.22 239.64C1247.92 238.929 1250.55 238.979 1253.12 239.791C1255.73 240.641 1258.16 242.321 1260.42 244.83L1254.88 249.786L1253.61 248.374C1248.21 242.376 1242.26 242.294 1235.73 248.129L1218.16 263.84L1213.35 258.488L1245.66 229.596L1250.47 234.948L1245.22 239.64Z" fill="#F04545"/>
<path d="M1296.92 278.367L1282 289.192L1293.83 305.415L1289.03 308.9L1277.19 292.677L1261.82 303.827L1275.05 321.966L1270.25 325.451L1252.78 301.5L1297.48 269.07L1314.95 293.021L1310.15 296.506L1296.92 278.367Z" fill="#F04545"/>
<path d="M1292.21 356.29L1300.25 338.949L1281.3 339.338L1277.24 333.022L1302.94 333.19L1313.77 309.654L1318.17 316.501L1310.2 333.8L1329.03 333.388L1333.1 339.703L1307.51 339.559L1296.61 363.138L1292.21 356.29Z" fill="#F04545"/>
<path d="M1338.08 359.894C1340.94 359.996 1343.74 360.9 1346.5 362.606C1349.32 364.334 1351.61 366.852 1353.36 370.158C1355.16 373.557 1355.97 377.061 1355.79 380.668C1355.63 384.322 1354.48 387.728 1352.33 390.884C1350.22 394.015 1347.21 396.613 1343.29 398.678C1339.41 400.718 1335.54 401.745 1331.67 401.759C1327.8 401.773 1324.28 400.826 1321.12 398.917C1317.99 397.054 1315.52 394.423 1313.72 391.023C1311.99 387.764 1311.19 384.496 1311.31 381.219C1311.5 377.965 1312.34 375.108 1313.85 372.649L1288.56 385.957L1285.2 379.601L1341.79 349.814L1345.15 356.17L1338.08 359.894ZM1339.85 392.182C1342.75 390.658 1344.96 388.749 1346.49 386.454C1348.02 384.159 1348.82 381.716 1348.88 379.124C1348.97 376.578 1348.38 374.118 1347.12 371.743C1345.89 369.415 1344.16 367.557 1341.94 366.169C1339.78 364.803 1337.28 364.092 1334.45 364.036C1331.69 364.003 1328.88 364.735 1326.03 366.234C1323.14 367.758 1320.9 369.68 1319.32 371.999C1317.82 374.34 1317 376.796 1316.86 379.366C1316.8 381.958 1317.39 384.419 1318.62 386.747C1319.88 389.122 1321.58 390.992 1323.74 392.358C1325.97 393.746 1328.46 394.457 1331.22 394.491C1334.03 394.5 1336.91 393.73 1339.85 392.182Z" fill="#F04545"/>
<path d="M1369.48 448.444C1368.22 448.987 1366.85 449.488 1365.39 449.949L1351.64 418.189C1347.82 420.121 1345.31 422.776 1344.13 426.153C1343.02 429.558 1343.21 433.001 1344.72 436.481C1345.95 439.333 1347.63 441.42 1349.76 442.742C1351.95 444.091 1354.33 444.672 1356.9 444.486L1359.97 451.592C1355.68 452.177 1351.64 451.396 1347.83 449.25C1344.08 447.082 1341.17 443.629 1339.12 438.892C1337.49 435.121 1336.87 431.372 1337.27 427.645C1337.69 423.965 1339.09 420.612 1341.45 417.584C1343.87 414.535 1347.14 412.124 1351.26 410.35C1355.38 408.576 1359.35 407.842 1363.16 408.15C1366.97 408.458 1370.34 409.731 1373.27 411.97C1376.26 414.237 1378.6 417.304 1380.27 421.171C1381.9 424.941 1382.52 428.632 1382.13 432.242C1381.74 435.852 1380.42 439.057 1378.19 441.856C1376.02 444.683 1373.11 446.879 1369.48 448.444ZM1367.91 441.033C1370.43 439.948 1372.35 438.463 1373.66 436.579C1375.02 434.674 1375.74 432.556 1375.82 430.226C1375.98 427.923 1375.55 425.612 1374.55 423.292C1373.1 419.956 1370.8 417.563 1367.64 416.113C1364.51 414.711 1360.97 414.655 1357.05 415.945L1367.91 441.033Z" fill="#F04545"/>
<path d="M1390.42 463.815C1393.18 464.139 1395.61 465.15 1397.71 466.846C1399.82 468.591 1401.47 471.043 1402.64 474.203L1395.66 476.785L1395 475.008C1392.19 467.455 1386.68 465.198 1378.46 468.238L1356.34 476.424L1353.83 469.685L1394.52 454.632L1397.02 461.371L1390.42 463.815Z" fill="#F04545"/>
<path d="M1414.83 488.912C1414.39 487.613 1414.48 486.364 1415.08 485.166C1415.68 483.967 1416.63 483.152 1417.93 482.719C1419.24 482.287 1420.49 482.371 1421.69 482.97C1422.89 483.57 1423.71 484.52 1424.14 485.819C1424.56 487.068 1424.46 488.267 1423.84 489.415C1423.24 490.614 1422.29 491.429 1420.98 491.862C1419.68 492.294 1418.43 492.21 1417.23 491.61C1416.04 491.061 1415.24 490.161 1414.83 488.912ZM1409.24 494.43L1368.06 508.1L1365.79 501.281L1406.96 487.61L1409.24 494.43Z" fill="#F04545"/>
<path d="M1406.48 554.133C1405.14 554.466 1403.72 554.741 1402.19 554.96L1393.76 521.404C1389.67 522.697 1386.78 524.914 1385.06 528.057C1383.41 531.238 1383.05 534.667 1383.97 538.345C1384.73 541.358 1386.05 543.688 1387.94 545.334C1389.88 547.018 1392.14 547.974 1394.7 548.203L1396.59 555.71C1392.26 555.598 1388.39 554.177 1384.98 551.446C1381.63 548.703 1379.32 544.829 1378.06 539.824C1377.06 535.84 1377.06 532.041 1378.05 528.426C1379.06 524.862 1380.98 521.777 1383.81 519.17C1386.69 516.55 1390.3 514.696 1394.66 513.607C1399.01 512.519 1403.04 512.433 1406.76 513.35C1410.47 514.267 1413.59 516.066 1416.11 518.746C1418.7 521.464 1420.51 524.866 1421.54 528.952C1422.54 532.936 1422.55 536.678 1421.58 540.177C1420.61 543.677 1418.8 546.628 1416.13 549.031C1413.54 551.472 1410.32 553.173 1406.48 554.133ZM1406.13 546.567C1408.79 545.901 1410.92 544.744 1412.52 543.095C1414.17 541.434 1415.22 539.46 1415.68 537.174C1416.21 534.926 1416.16 532.576 1415.54 530.125C1414.66 526.601 1412.77 523.869 1409.89 521.93C1407.02 520.042 1403.55 519.418 1399.46 520.06L1406.13 546.567Z" fill="#F04545"/>
<path d="M1435.28 583.963C1436.17 589.153 1435.31 593.628 1432.68 597.387C1430.11 601.138 1425.86 603.518 1419.93 604.53L1394.72 608.83L1393.52 601.823L1417.71 597.697C1421.98 596.969 1425.05 595.35 1426.92 592.841C1428.85 590.322 1429.5 587.221 1428.86 583.536C1428.22 579.799 1426.54 577.014 1423.82 575.182C1421.1 573.401 1417.51 572.893 1413.03 573.656L1389.38 577.689L1388.16 570.605L1430.94 563.31L1432.15 570.394L1426.07 571.433C1428.49 572.461 1430.51 574.067 1432.11 576.251C1433.73 578.486 1434.79 581.057 1435.28 583.963Z" fill="#F04545"/>
<path d="M1419.95 617.2C1424.42 616.786 1428.39 617.318 1431.87 618.794C1435.4 620.265 1438.23 622.488 1440.37 625.464C1442.5 628.491 1443.76 632.05 1444.14 636.139C1444.64 641.435 1443.75 645.906 1441.5 649.552C1439.24 653.251 1435.88 655.862 1431.41 657.387L1430.69 649.68C1433.25 648.702 1435.19 647.068 1436.52 644.778C1437.85 642.539 1438.37 639.847 1438.07 636.702C1437.69 632.612 1435.97 629.44 1432.89 627.187C1429.87 624.928 1425.79 624.037 1420.63 624.514C1415.43 624.996 1411.53 626.626 1408.92 629.406C1406.32 632.185 1405.2 635.619 1405.59 639.709C1405.88 642.855 1406.86 645.408 1408.53 647.369C1410.19 649.33 1412.43 650.577 1415.24 651.11L1415.95 658.817C1411.43 658.073 1407.67 656.094 1404.66 652.882C1401.71 649.665 1400 645.461 1399.51 640.271C1399.13 636.181 1399.71 632.452 1401.26 629.084C1402.8 625.768 1405.18 623.063 1408.37 620.969C1411.57 618.875 1415.43 617.619 1419.95 617.2Z" fill="#F04545"/>
<path d="M1428.9 714.466C1427.53 714.487 1426.07 714.431 1424.54 714.296L1424.01 679.707C1419.73 680.036 1416.4 681.535 1414.02 684.205C1411.68 686.927 1410.55 690.183 1410.6 693.973C1410.65 697.08 1411.4 699.648 1412.86 701.68C1414.37 703.763 1416.35 705.207 1418.79 706.012L1418.91 713.751C1414.72 712.657 1411.28 710.393 1408.59 706.959C1405.95 703.524 1404.59 699.227 1404.51 694.067C1404.44 689.961 1405.31 686.261 1407.11 682.968C1408.91 679.728 1411.48 677.161 1414.83 675.266C1418.23 673.371 1422.18 672.389 1426.66 672.32C1431.15 672.25 1435.1 673.085 1438.5 674.823C1441.91 676.561 1444.53 679.022 1446.38 682.206C1448.28 685.441 1449.26 689.165 1449.32 693.377C1449.39 697.484 1448.55 701.13 1446.8 704.317C1445.05 707.503 1442.61 709.963 1439.47 711.697C1436.38 713.482 1432.86 714.405 1428.9 714.466ZM1430.29 707.02C1433.03 706.977 1435.37 706.336 1437.31 705.095C1439.3 703.853 1440.77 702.171 1441.74 700.05C1442.77 697.98 1443.26 695.682 1443.22 693.155C1443.17 689.522 1441.96 686.434 1439.59 683.89C1437.23 681.399 1433.99 680 1429.87 679.695L1430.29 707.02Z" fill="#F04545"/>
<path d="M1427.45 754.852C1427.52 753.485 1428.05 752.349 1429.04 751.446C1430.03 750.544 1431.22 750.124 1432.59 750.187C1433.96 750.251 1435.1 750.778 1436 751.768C1436.91 752.759 1437.33 753.938 1437.26 755.305C1437.2 756.62 1436.68 757.703 1435.69 758.553C1434.69 759.456 1433.51 759.876 1432.14 759.812C1430.77 759.749 1429.63 759.222 1428.72 758.231C1427.82 757.293 1427.39 756.167 1427.45 754.852Z" fill="#F04545"/>
<path d="M1433 794.539C1438.31 795.464 1442.86 797.487 1446.65 800.608C1450.5 803.738 1453.26 807.56 1454.93 812.075C1456.59 816.642 1456.98 821.44 1456.1 826.472C1455.06 832.384 1452.73 837.296 1449.1 841.205C1445.46 845.115 1440.84 847.623 1435.24 848.729L1436.72 840.249C1440.26 839.317 1443.17 837.578 1445.44 835.034C1447.69 832.542 1449.17 829.325 1449.86 825.383C1450.53 821.596 1450.24 818.045 1449 814.728C1447.76 811.412 1445.65 808.612 1442.67 806.328C1439.75 804.054 1436.1 802.536 1431.73 801.774C1427.42 801.021 1423.47 801.214 1419.89 802.354C1416.37 803.504 1413.46 805.428 1411.16 808.128C1408.87 810.828 1407.39 814.071 1406.72 817.857C1406.03 821.799 1406.3 825.32 1407.52 828.42C1408.79 831.581 1410.93 834.2 1413.94 836.275L1412.46 844.756C1407.61 841.825 1404.15 837.906 1402.06 832.999C1400.02 828.1 1399.52 822.695 1400.56 816.782C1401.44 811.751 1403.42 807.365 1406.49 803.624C1409.6 799.943 1413.47 797.278 1418.1 795.627C1422.73 793.976 1427.7 793.613 1433 794.539Z" fill="#F04545"/>
<path d="M1429.32 867.282C1431.46 869.062 1432.94 871.232 1433.76 873.794C1434.58 876.408 1434.61 879.358 1433.86 882.644L1426.6 881.004L1427.02 879.155C1428.81 871.298 1425.43 866.404 1416.88 864.472L1393.87 859.271L1395.46 852.262L1437.78 861.826L1436.19 868.836L1429.32 867.282Z" fill="#F04545"/>
<path d="M1400.31 929.832C1398.99 929.429 1397.63 928.927 1396.21 928.327L1406.42 895.265C1402.26 894.261 1398.62 894.661 1395.53 896.465C1392.46 898.334 1390.37 901.08 1389.25 904.703C1388.34 907.672 1388.26 910.347 1389.01 912.728C1389.81 915.175 1391.24 917.157 1393.31 918.675L1391.03 926.073C1387.38 923.741 1384.81 920.528 1383.31 916.432C1381.87 912.351 1381.9 907.845 1383.43 902.914C1384.64 898.988 1386.61 895.737 1389.34 893.159C1392.05 890.632 1395.3 888.984 1399.07 888.214C1402.89 887.46 1406.95 887.741 1411.24 889.059C1415.53 890.376 1419.02 892.386 1421.72 895.088C1424.42 897.791 1426.16 900.941 1426.92 904.537C1427.73 908.199 1427.51 912.044 1426.26 916.069C1425.05 919.994 1423.12 923.203 1420.47 925.696C1417.83 928.188 1414.74 929.775 1411.22 930.456C1407.73 931.202 1404.09 930.994 1400.31 929.832ZM1403.93 923.178C1406.56 923.984 1408.98 924.095 1411.21 923.511C1413.48 922.942 1415.41 921.798 1416.99 920.08C1418.6 918.427 1419.78 916.393 1420.53 913.978C1421.6 910.505 1421.41 907.195 1419.95 904.048C1418.48 900.951 1415.82 898.622 1412 897.061L1403.93 923.178Z" fill="#F04545"/>
<path d="M1397.09 942.309C1401.2 943.971 1404.46 946.255 1406.87 949.16C1409.33 952.085 1410.83 955.334 1411.37 958.905C1411.89 962.525 1411.43 966.117 1409.98 969.679C1408.55 973.192 1406.55 975.935 1403.98 977.908C1401.42 979.881 1398.72 981.037 1395.91 981.376L1403.25 984.343L1400.51 991.077L1360.29 974.814L1363.03 968.081L1370.52 971.108C1368.7 968.84 1367.55 966.073 1367.06 962.805C1366.59 959.605 1367.06 956.273 1368.47 952.809C1369.92 949.247 1372.11 946.382 1375.04 944.215C1377.97 942.049 1381.37 940.779 1385.22 940.406C1389.07 940.033 1393.03 940.667 1397.09 942.309ZM1383.21 976.242C1386.25 977.468 1389.14 977.927 1391.88 977.617C1394.63 977.307 1397.02 976.34 1399.04 974.717C1401.1 973.162 1402.63 971.14 1403.65 968.652C1404.66 966.163 1404.99 963.657 1404.65 961.132C1404.31 958.608 1403.26 956.281 1401.51 954.151C1399.75 952.021 1397.36 950.343 1394.33 949.116C1391.24 947.87 1388.3 947.392 1385.51 947.682C1382.76 947.992 1380.36 948.924 1378.31 950.479C1376.3 952.053 1374.79 954.085 1373.78 956.573C1372.77 959.062 1372.43 961.568 1372.77 964.093C1373.14 966.686 1374.2 969.047 1375.96 971.177C1377.76 973.327 1380.18 975.015 1383.21 976.242Z" fill="#F04545"/>
<path d="M1384.6 1014.62L1361.43 1003.81C1359.52 1002.92 1357.96 1002.69 1356.77 1003.12C1355.62 1003.58 1354.58 1004.81 1353.64 1006.81L1351.39 1011.6L1345.87 1009.03L1348.62 1003.16C1350.32 999.535 1352.43 997.207 1354.96 996.175C1357.48 995.143 1360.66 995.52 1364.48 997.304L1387.65 1008.11L1390.03 1003.03L1395.41 1005.54L1393.03 1010.62L1402.93 1015.24L1399.88 1021.75L1389.98 1017.13L1385.18 1027.36L1379.8 1024.85L1384.6 1014.62Z" fill="#F04545"/>
<path d="M1341.14 1070.12C1339.94 1069.44 1338.72 1068.66 1337.46 1067.77L1354.55 1037.67C1350.7 1035.79 1347.07 1035.41 1343.65 1036.5C1340.26 1037.67 1337.63 1039.91 1335.75 1043.21C1334.22 1045.91 1333.56 1048.51 1333.79 1050.99C1334.04 1053.55 1335.01 1055.8 1336.7 1057.72L1332.88 1064.46C1329.82 1061.4 1328.01 1057.71 1327.42 1053.39C1326.89 1049.09 1327.9 1044.7 1330.45 1040.21C1332.48 1036.64 1335.1 1033.88 1338.32 1031.95C1341.52 1030.06 1345.04 1029.15 1348.89 1029.21C1352.79 1029.29 1356.69 1030.43 1360.59 1032.64C1364.5 1034.84 1367.48 1037.55 1369.53 1040.77C1371.59 1043.99 1372.6 1047.44 1372.58 1051.11C1372.57 1054.86 1371.53 1058.57 1369.45 1062.24C1367.42 1065.81 1364.85 1068.53 1361.72 1070.4C1358.6 1072.26 1355.25 1073.15 1351.66 1073.06C1348.09 1073.04 1344.58 1072.06 1341.14 1070.12ZM1346.11 1064.4C1348.5 1065.74 1350.84 1066.37 1353.14 1066.28C1355.49 1066.21 1357.62 1065.51 1359.53 1064.17C1361.46 1062.9 1363.05 1061.16 1364.3 1058.96C1366.1 1055.8 1366.62 1052.53 1365.87 1049.14C1365.1 1045.8 1363.01 1042.96 1359.61 1040.61L1346.11 1064.4Z" fill="#F04545"/>
<path d="M1279.63 1123.56L1283.89 1117.76L1336.47 1120.36L1301.03 1094.45L1305.29 1088.65L1349.87 1121.25L1345.61 1127.04L1293.09 1124.49L1328.47 1150.36L1324.21 1156.15L1279.63 1123.56Z" fill="#F04545"/>
<path d="M1264.06 1181.4C1263.02 1180.51 1261.97 1179.51 1260.91 1178.39L1283.49 1152.14C1280.08 1149.56 1276.59 1148.48 1273.03 1148.9C1269.47 1149.4 1266.45 1151.08 1263.98 1153.96C1261.95 1156.32 1260.81 1158.74 1260.55 1161.22C1260.3 1163.78 1260.82 1166.17 1262.11 1168.39L1257.06 1174.26C1254.65 1170.67 1253.57 1166.7 1253.84 1162.35C1254.14 1158.03 1255.98 1153.92 1259.35 1150C1262.03 1146.88 1265.14 1144.69 1268.67 1143.41C1272.17 1142.17 1275.81 1141.95 1279.57 1142.75C1283.38 1143.58 1286.99 1145.45 1290.39 1148.36C1293.8 1151.28 1296.2 1154.51 1297.6 1158.06C1298.99 1161.62 1299.32 1165.19 1298.59 1168.8C1297.86 1172.47 1296.12 1175.91 1293.37 1179.11C1290.69 1182.23 1287.63 1184.4 1284.21 1185.63C1280.78 1186.87 1277.32 1187.09 1273.82 1186.31C1270.32 1185.61 1267.07 1183.97 1264.06 1181.4ZM1270.05 1176.74C1272.13 1178.53 1274.31 1179.59 1276.58 1179.94C1278.9 1180.33 1281.12 1180.04 1283.26 1179.1C1285.4 1178.22 1287.3 1176.83 1288.95 1174.91C1291.32 1172.15 1292.47 1169.04 1292.39 1165.57C1292.27 1162.15 1290.78 1158.96 1287.89 1156L1270.05 1176.74Z" fill="#F04545"/>
<path d="M1227.77 1249.16L1207.69 1208.48L1213.09 1203.37L1244.39 1221.09L1228.24 1189.01L1233.64 1183.89L1273.4 1205.91L1268.07 1210.97L1235.74 1191.49L1253.03 1225.22L1247.69 1230.28L1214.9 1211.13L1232.94 1244.26L1227.77 1249.16Z" fill="#F04545"/>
<path d="M1183.31 1303.53L1179.71 1298.92L1191.58 1289.7L1161.26 1250.88L1166.95 1246.46L1197.26 1285.28L1209.2 1276.01L1212.8 1280.62L1183.31 1303.53Z" fill="#F04545"/>
<path d="M1146.55 1317.82C1143.82 1319.63 1140.96 1320.66 1137.98 1320.93C1135.02 1321.24 1132.15 1320.64 1129.37 1319.13C1126.55 1317.65 1124.03 1315.24 1121.82 1311.9L1107.69 1290.63L1113.63 1286.71L1127.19 1307.12C1129.58 1310.72 1132.3 1312.87 1135.36 1313.56C1138.45 1314.3 1141.56 1313.64 1144.68 1311.57C1147.85 1309.48 1149.72 1306.82 1150.31 1303.6C1150.84 1300.4 1149.86 1296.91 1147.35 1293.14L1134.1 1273.19L1140.11 1269.22L1172.47 1317.94L1166.46 1321.91L1154.65 1304.13C1154.69 1306.76 1154.01 1309.27 1152.61 1311.64C1151.17 1314.05 1149.15 1316.11 1146.55 1317.82Z" fill="#F04545"/>
<path d="M1121.48 1341.95C1122.65 1341.23 1123.89 1341.02 1125.19 1341.33C1126.5 1341.64 1127.52 1342.38 1128.24 1343.55C1128.96 1344.71 1129.16 1345.95 1128.85 1347.25C1128.54 1348.56 1127.8 1349.57 1126.63 1350.29C1125.51 1350.98 1124.31 1351.15 1123.05 1350.81C1121.74 1350.5 1120.73 1349.77 1120.01 1348.6C1119.29 1347.43 1119.08 1346.2 1119.4 1344.9C1119.66 1343.62 1120.36 1342.64 1121.48 1341.95ZM1114.82 1337.78L1092.06 1300.93L1098.2 1297.16L1120.95 1334.01L1114.82 1337.78Z" fill="#F04545"/>
<path d="M1079.39 1360.15C1074.7 1362.55 1070.16 1363.07 1065.77 1361.71C1061.41 1360.39 1057.86 1357.06 1055.11 1351.72L1043.42 1329.03L1049.76 1325.78L1060.98 1347.56C1062.96 1351.4 1065.43 1353.83 1068.39 1354.86C1071.38 1355.94 1074.54 1355.62 1077.87 1353.91C1081.25 1352.18 1083.41 1349.74 1084.34 1346.6C1085.23 1343.48 1084.64 1339.91 1082.56 1335.88L1071.6 1314.59L1078.01 1311.31L1097.84 1349.81L1091.43 1353.09L1088.61 1347.61C1088.35 1350.23 1087.42 1352.63 1085.82 1354.81C1084.16 1357.02 1082.02 1358.8 1079.39 1360.15Z" fill="#F04545"/>
<path d="M1032.49 1384.31C1029.02 1385.73 1025.68 1386.21 1022.47 1385.76C1019.21 1385.33 1016.48 1384.23 1014.27 1382.46L1017.27 1389.76L1010.53 1392.52L993.71 1351.59C992.209 1347.94 991.659 1344.38 992.061 1340.92C992.443 1337.4 993.77 1334.24 996.04 1331.44C998.262 1328.65 1001.3 1326.47 1005.16 1324.89C1010.44 1322.74 1015.34 1322.18 1019.88 1323.23C1024.42 1324.28 1027.89 1326.81 1030.28 1330.84L1023.69 1333.54C1021.96 1331.4 1019.64 1330.07 1016.74 1329.55C1013.83 1328.97 1010.76 1329.35 1007.53 1330.67C1003.87 1332.16 1001.36 1334.53 1000.01 1337.75C998.601 1341 998.75 1344.7 1000.45 1348.84L1003.91 1357.24C1004.26 1354.37 1005.42 1351.62 1007.36 1349C1009.31 1346.38 1012.02 1344.37 1015.49 1342.95C1019.06 1341.49 1022.67 1341.04 1026.32 1341.6C1029.92 1342.17 1033.2 1343.7 1036.16 1346.19C1039.13 1348.68 1041.44 1351.95 1043.1 1355.99C1044.78 1360.08 1045.42 1364 1045.02 1367.75C1044.64 1371.55 1043.36 1374.89 1041.18 1377.77C1038.95 1380.67 1036.05 1382.86 1032.49 1384.31ZM1009.07 1369.81C1010.31 1372.83 1012 1375.22 1014.15 1376.96C1016.29 1378.7 1018.65 1379.73 1021.23 1380.04C1023.78 1380.42 1026.3 1380.1 1028.8 1379.08C1031.29 1378.06 1033.32 1376.55 1034.89 1374.54C1036.46 1372.53 1037.4 1370.16 1037.7 1367.42C1038 1364.68 1037.53 1361.8 1036.29 1358.78C1035.02 1355.71 1033.31 1353.28 1031.15 1351.48C1029.01 1349.74 1026.66 1348.68 1024.11 1348.3C1021.58 1347.97 1019.06 1348.32 1016.57 1349.33C1014.08 1350.35 1012.05 1351.87 1010.48 1353.87C1008.88 1355.95 1007.93 1358.36 1007.63 1361.1C1007.35 1363.89 1007.83 1366.79 1009.07 1369.81Z" fill="#F04545"/>
<path d="M965.469 1363.51C968.625 1362.47 971.63 1362.05 974.485 1362.27C977.356 1362.54 979.835 1363.38 981.921 1364.8C984.024 1366.26 985.568 1368.22 986.552 1370.67L979.489 1373.01C978.605 1371.03 977.095 1369.67 974.958 1368.94C972.771 1368.22 970.275 1368.33 967.47 1369.26C964.866 1370.13 963.004 1371.38 961.884 1373.03C960.765 1374.68 960.497 1376.38 961.081 1378.12C961.681 1379.92 962.925 1380.98 964.811 1381.3C966.714 1381.66 969.485 1381.72 973.125 1381.45C976.447 1381.24 979.219 1381.2 981.439 1381.35C983.626 1381.57 985.688 1382.25 987.624 1383.38C989.526 1384.58 990.92 1386.5 991.804 1389.15C992.504 1391.25 992.52 1393.38 991.851 1395.54C991.182 1397.71 989.863 1399.67 987.892 1401.44C985.938 1403.25 983.483 1404.65 980.528 1405.63C975.97 1407.14 971.904 1407.22 968.332 1405.85C964.76 1404.48 962.207 1401.84 960.673 1397.91L967.51 1395.64C968.377 1397.73 969.829 1399.17 971.866 1399.93C973.852 1400.72 976.173 1400.67 978.827 1399.79C981.282 1398.97 983.06 1397.8 984.163 1396.27C985.265 1394.73 985.533 1393.12 984.966 1391.42C984.516 1390.07 983.715 1389.09 982.563 1388.47C981.378 1387.92 980.043 1387.59 978.557 1387.47C977.038 1387.42 974.992 1387.46 972.421 1387.59C969.199 1387.78 966.528 1387.78 964.408 1387.59C962.304 1387.46 960.343 1386.83 958.524 1385.72C956.654 1384.62 955.278 1382.83 954.394 1380.34C953.643 1378.1 953.594 1375.87 954.246 1373.65C954.898 1371.44 956.201 1369.42 958.155 1367.61C960.076 1365.86 962.514 1364.5 965.469 1363.51Z" fill="#F04545"/>
<path d="M902.239 1438.53L898.305 1434.17L907.998 1427.24L896.181 1425.33L897.921 1419.5L908.824 1424.13L904.903 1412.79L910.69 1411.46L912.219 1423.35L919.973 1414.35L924.192 1418.89L914.498 1425.82L926.221 1427.67L924.558 1433.48L913.406 1428.83L917.345 1440.24L911.48 1441.59L910.087 1429.59L902.239 1438.53Z" fill="#F04545"/>
</svg>
